<svg id="Capa_1" enable-background="new 0 0 512 512" height="512" viewBox="0 0 512 512" width="512" xmlns="http://www.w3.org/2000/svg"><g><g><path d="m121 512h-90v-75c0-41.421 33.579-75 75-75h15c16.569 0 30 13.431 30 30v90c0 16.569-13.431 30-30 30z" fill="#ff6c6c"/></g><g><path d="m481 512h-90c-16.569 0-30-13.431-30-30v-90c0-16.569 13.431-30 30-30h15c41.421 0 75 33.579 75 75z" fill="#e63950"/></g><path d="m328.001 362-72.001 61.478-75.3-61.478h-59.7v150h121.199l13.801-34.054 14.099 34.054h120.901v-150z" fill="#ffdc91"/><path d="m256 477.946 14.099 34.054h120.901v-150h-62.999l-72.001 61.478z" fill="#fac063"/><g><path d="m328.001 362-57.902 150h-27.9l-61.499-150z" fill="#575f64"/></g><path d="m256 512h14.099l57.902-150h-72.001z" fill="#474f54"/><g><g><path d="m256 392c-74.443 0-135-60.557-135-135v-84.229l21.709 10.811c.557.278 57.686 28.418 113.291 28.418s112.734-28.14 113.291-28.418l21.709-10.811v84.229c0 74.443-60.557 135-135 135z" fill="#fff7cc"/></g></g><path d="m391 257v-84.229l-21.709 10.811c-.557.278-57.686 28.418-113.291 28.418v180c74.443 0 135-60.557 135-135z" fill="#ffe6b3"/><g><g><path d="m224.506 152h-104.121l.938-15.879c6.481-110.049 116.675-118.62 119.677-120.234v109.233l-5.01 4.468c-3.779 3.384-6.504 7.471-8.057 12.158z" fill="#fc6"/></g></g><g><g><g><g><path d="m391.615 152h-104.121l-3.428-10.254c-1.553-4.688-4.277-8.774-8.057-12.158l-5.009-4.468v-109.233c3.001 1.614 113.196 10.192 119.678 120.234z" fill="#f09040"/></g></g></g></g><g><path d="m256 242c-55.371 0-109.57-23.54-123.398-30h-41.602v-90h144.287l-7.529 20.229c-1.23 3.267-1.758 6.27-1.758 9.771 0 16.538 13.447 30 30 30s30-13.462 30-30c0-3.501-.527-6.504-1.758-9.771l-7.529-20.229h144.287v90h-41.602c-13.828 6.46-68.027 30-123.398 30z" fill="#ffdc91"/></g><path d="m379.398 212h41.602v-90h-144.287l7.529 20.229c1.23 3.267 1.758 6.27 1.758 9.771 0 16.538-13.447 30-30 30v60c55.371 0 109.57-23.54 123.398-30z" fill="#fac063"/><g><path d="m301 151.707-24.932-22.075c-10.957-9.697-29.18-9.697-40.137 0l-24.931 22.075v-151.707h90z" fill="#ffdc91"/></g><path d="m301 151.707v-151.707h-45v122.359c7.295 0 14.59 2.424 20.068 7.273z" fill="#fac063"/><circle cx="256" cy="152" fill="#575f64" r="60"/><path d="m316 152c0-33.138-26.863-60-60-60v120c33.137 0 60-26.863 60-60z" fill="#474f54"/><circle cx="256" cy="152" fill="#fff7cc" r="30"/><path d="m286 152c0-16.542-13.458-30-30-30v60c16.542 0 30-13.458 30-30z" fill="#ffe6b3"/><g id="Geology_engineer_1_"><g><path d="m256 332c-22.254 0-37.152-10.813-49.219-14.312l8.438-28.799c13.413 3.938 27.119 13.111 40.781 13.111 13.675 0 27.29-9.15 40.781-13.11l8.438 28.799c-10.862 3.149-28.019 14.311-49.219 14.311z" fill="#575f64"/></g></g><path d="m305.219 317.688-8.438-28.799c-13.491 3.961-27.105 13.111-40.781 13.111v30c21.2 0 38.357-11.162 49.219-14.312z" fill="#474f54"/></g></svg>