<svg id="Capa_1" enable-background="new 0 0 512.195 512.195" height="512" viewBox="0 0 512.195 512.195" width="512" xmlns="http://www.w3.org/2000/svg"><g><path d="m256 .023c-68.381 0-132.669 26.637-181.021 75.004-48.351 48.366-74.979 112.671-74.979 181.07s26.628 132.705 74.979 181.071c48.353 48.367 112.641 75.004 181.021 75.004 8.284 0 15-6.716 15-15v-482.149c0-8.284-6.716-15-15-15z" fill="#00c8c8"/><path d="m233.68 345.4-5.38 7.837c-3.172 4.62-7.783 8.061-13.114 9.786l-17.871 5.783c-24.93 8.065-40.907 32.819-37.991 58.858l2.524 22.537c.283 2.523.187 5.067-.287 7.561l-6.202 33.922c31.393 13.425 65.472 20.488 100.642 20.488 5.494 0 10.284-2.963 12.897-7.369.706-1.74 1.103-3.638 1.103-5.631v-165.318h-11.088c-3.537 0-7.036.739-10.271 2.17l-7.848 3.471c-2.873 1.27-5.336 3.315-7.114 5.905z" fill="#bce339"/><path d="m270 9.673c-2.157-5.638-7.603-9.65-14-9.65-68.381 0-132.669 26.637-181.021 75.004-43.805 43.82-69.78 100.723-74.276 161.9h58.802c.59 0 1.175.122 1.716.358l36.629 15.955c6.63 2.888 13.543 4.31 20.389 4.31 10.935 0 21.694-3.63 30.825-10.707 14.847-11.508 21.938-29.452 18.969-48-1.014-6.334.919-12.654 5.303-17.339l23.086-24.672c8.807-9.411 13.656-21.691 13.656-34.579v-36.467c0-2.048 1.446-3.811 3.454-4.213l30.218-6.044c9.952-1.99 18.859-6.79 26.251-14.193v-51.663z" fill="#bce339"/><g><path d="m351.445 256.097c0-41.536-53.811-75.315-95.348-75.262v150.525c41.538.052 95.348-33.727 95.348-75.263z" fill="#cc2929"/><path d="m411.695 256.097c0-74.768-80.838-135.588-155.598-135.535v60.273c41.537-.052 75.348 33.727 75.348 75.262s-33.811 75.315-75.348 75.263v60.272c74.76.053 155.598-60.766 155.598-135.535z" fill="#ed8600"/><path d="m391.695 256.097c0 74.768-60.838 135.588-135.598 135.535v58.754c107.15.052 214.342-87.12 214.342-194.289s-107.191-194.341-214.341-194.289v58.754c74.759-.052 135.597 60.767 135.597 135.535z" fill="#ffa64d"/><path d="m512.195 256.097c0-68.399-26.628-132.705-74.979-181.071-48.374-48.389-112.702-75.016-181.118-74.991v61.774c107.15-.052 194.342 87.12 194.342 194.289s-87.192 194.341-194.342 194.289v61.774c68.417.025 132.744-26.603 181.119-74.992 48.35-48.367 74.978-112.672 74.978-181.072z" fill="#fecb65"/></g></g></svg>