<svg id="Capa_1" enable-background="new 0 0 512 512" height="512" viewBox="0 0 512 512" width="512" xmlns="http://www.w3.org/2000/svg"><g><path d="m391 68.7v111.6l-20.7-8.4c-71.7-29.1-156.9-29.1-228.6 0l-20.7 8.4v-114.6l30-15 30 9.3v-60h84.3l30 60h14.4l36.3-36.3z" fill="#ab633d"/><path d="m309.699 60h-14.399l-30-60h-9.3v150.075c39.225 0 78.45 7.275 114.3 21.824l20.7 8.401v-111.601l-45-45z" fill="#824c19"/><g id="Earth_Geology_1_"><g><path d="m181 35.7v54.3h-30v-39.3z" fill="#cd7f57"/></g></g><path d="m484.3 206.4-44.4 61.199h-367.8l-44.4-61.199c9.76-6.918 41.165-39.209 103.2-62.401 77.999-31.8 171.599-31.8 250.8.3 56.815 21.105 97.617 58.569 102.6 62.101z" fill="#97de3d"/><path d="m256 120.194v147.405h183.9l44.4-61.199c-4.982-3.532-45.784-40.997-102.599-62.1-39.555-16.031-82.701-24.049-125.701-24.106z" fill="#59c36a"/><path d="m439.9 267.599-53.699 73.5h-260.402l-53.699-73.5c48.3-45 112.8-72.599 183.9-72.599 70.8 0 135.601 27.599 183.9 72.599z" fill="#ab633d"/><path d="m386.201 341.1 53.699-73.5c-48.299-45.001-113.1-72.6-183.9-72.6v146.1z" fill="#824c19"/><path d="m386.201 341.1-54.3 75-151.501.3-54.6-75.3c32.7-34.501 78.899-56.1 130.2-56.1s97.5 21.599 130.201 56.1z" fill="#ffdc91"/><path d="m331.901 416.1 54.3-75c-32.701-34.501-78.9-56.1-130.201-56.1v131.25z" fill="#fac063"/><g><path d="m331.901 416.1v.3l-75.901 95.6-75.601-95.6c15.901-24.9 43.801-41.4 75.601-41.4 31.5 0 59.7 16.5 75.901 41.1z" fill="#ff6c6c"/></g><path d="m331.901 416.1c-16.201-24.6-44.401-41.1-75.901-41.1v137l75.901-95.6z" fill="#e63950"/></g></svg>