<svg id="Capa_1" enable-background="new 0 0 512 512" height="512" viewBox="0 0 512 512" width="512" xmlns="http://www.w3.org/2000/svg"><g><g><path d="m181 105c0-24.901-20.099-45-45-45h-136v75l92.8 30 91.8-30c-2.401-9.6-3.6-19.801-3.6-30z" fill="#97de3d"/></g><g><path d="m421 195h30v60h-30z" fill="#824c19"/></g><g><path d="m331 195h30v60h-30z" fill="#824c19"/></g><path d="m512 240v60c0 16.5-14.5 30-31 30h-450c-16.5 0-31-13.5-31-30v-165h184.6c9 39.899 35.7 72.9 71.4 90.599 16.8 8.701 36 13.801 56.1 14.101 1.864.467-8.621.3 199.9.3z" fill="#ab633d"/><path d="m512 240v60c0 16.5-14.5 30-31 30h-225v-104.401c16.8 8.701 36 13.801 56.1 14.101 1.864.467-8.621.3 199.9.3z" fill="#824c19"/><g><path d="m512 360v-60h-512v60l61 15-61 15v122h512v-122l-61-15z" fill="#fc6"/></g><path d="m512 390-61-15 61-15v-60h-256v212h256z" fill="#f09040"/><g id="Geology_2_"><g><path d="m121 180h30v30h-30z" fill="#cd7f57"/></g><g><path d="m61 210h30v30h-30z" fill="#cd7f57"/></g><g><path d="m151 240h30v30h-30z" fill="#cd7f57"/></g><g><path d="m0 360h91v30h-91z" fill="#ffdc91"/></g><g><path d="m61 420h90v30h-90z" fill="#ffdc91"/></g><g><path d="m391 420h60v30h-60z" fill="#fac063"/></g><g><path d="m421 360h91v30h-91z" fill="#fac063"/></g><g><path d="m271 360h90v30h-90z" fill="#fac063"/></g><g><path d="m241 420h120v30h-120z" fill="#ffdc91"/></g><g><path d="m121 360h60v30h-60z" fill="#ffdc91"/></g><g><path d="m346 210c-49.775 0-75-25.239-75-75 0-55.049 29.209-135 75-135 39.554 0 59.382 59.825 61.23 62.886-1.307 4.087-16.23 30.492-16.23 72.114 0 35.51 15.433 37.05 22.207 45.835-7.053 4.014-16.748 29.165-67.207 29.165z" fill="#00a66c"/></g></g><g><g><path d="m436 210c-51.33 0-75-26.484-75-75 0-25.21 6.064-54.434 16.201-78.193 14.619-36.519 35.537-56.807 58.799-56.807 45.791 0 75 79.951 75 135 0 49.761-25.225 75-75 75z" fill="#59c36a"/></g></g><path d="m256 420h105v30h-105z" fill="#fac063"/></g></svg>