<svg id="Layer_1" enable-background="new 0 0 512 512" height="512" viewBox="0 0 512 512" width="512" xmlns="http://www.w3.org/2000/svg"><g><path d="m234.173 261.173c3.204-2.636 7.909-2.211 10.545.992 2.637 3.175 2.212 7.908-.991 10.545-2.184 1.786-4.706 3.26-7.513 4.253-2.692.992-5.556 1.502-8.476 1.502-2.919 0-5.782-.51-8.476-1.502-2.806-.993-5.358-2.467-7.513-4.253-3.203-2.637-3.628-7.37-.992-10.545 2.637-3.203 7.343-3.628 10.546-.992.907.765 1.928 1.36 2.977 1.729 1.02.369 2.183.567 3.458.567s2.41-.198 3.431-.567c1.077-.368 2.097-.963 3.004-1.729zm-59.585 56.467c-3.203-2.636-3.628-7.37-.992-10.545 2.637-3.203 7.342-3.628 10.545-.992 6.066 5.018 12.954 8.986 20.409 11.679 7.172 2.58 14.997 3.997 23.188 3.997 8.192 0 15.988-1.418 23.188-3.997 7.455-2.693 14.344-6.662 20.41-11.679 3.174-2.636 7.908-2.211 10.545.992 2.636 3.175 2.182 7.909-.992 10.545-7.314 6.039-15.732 10.886-24.917 14.202-8.872 3.203-18.396 4.932-28.233 4.932-9.864 0-19.361-1.729-28.233-4.932-9.186-3.317-17.605-8.164-24.918-14.202zm18.794-22.734c-3.203-2.637-3.629-7.342-.992-10.545 2.637-3.175 7.342-3.628 10.545-.992 3.458 2.863 7.37 5.131 11.595 6.661 4.082 1.474 8.504 2.268 13.209 2.268 4.678 0 9.128-.794 13.21-2.268 4.224-1.53 8.136-3.798 11.594-6.661 3.203-2.636 7.908-2.183 10.545.992 2.636 3.203 2.211 7.908-.992 10.545-4.706 3.912-10.148 7.03-16.13 9.184-5.754 2.069-11.877 3.203-18.227 3.203s-12.5-1.134-18.256-3.203c-5.953-2.154-11.396-5.272-16.101-9.184z" fill="#d3effb"/><path clip-rule="evenodd" d="m7.994 506.033h496.012c4.394 0 7.994-3.6 7.994-8.022v-108.03l-288.429-7.512-223.571 7.512v108.03c0 4.422 3.601 8.022 7.994 8.022z" fill="#d19a6e" fill-rule="evenodd"/><path clip-rule="evenodd" d="m479.005 506.033h25.001c4.394 0 7.994-3.6 7.994-8.022v-108.03h-25.002v108.03c0 4.422-3.6 8.022-7.993 8.022z" fill="#c38c66" fill-rule="evenodd"/><path clip-rule="evenodd" d="m512 389.981v-23.017c0-4.395-3.601-7.995-7.994-7.995h-496.012c-4.394 0-7.994 3.6-7.994 7.995v23.017z" fill="#b3e59f" fill-rule="evenodd"/><path clip-rule="evenodd" d="m512 389.981v-23.017c0-4.395-3.601-7.995-7.994-7.995h-25.001c4.393 0 7.993 3.6 7.993 7.995v23.017z" fill="#95d6a4" fill-rule="evenodd"/><path d="m37.19 422.863c1.418-3.883 5.699-5.868 9.583-4.479 3.883 1.417 5.896 5.698 4.479 9.581l-16.442 45.157c-1.389 3.884-5.697 5.896-9.581 4.478-3.884-1.417-5.868-5.697-4.479-9.581zm440 0c1.417-3.883 5.697-5.868 9.581-4.479 3.884 1.417 5.895 5.698 4.478 9.581l-16.412 45.156c-1.418 3.884-5.699 5.896-9.582 4.478-3.884-1.417-5.896-5.697-4.479-9.581zm-39.998 0c1.417-3.883 5.698-5.868 9.581-4.479 3.884 1.417 5.896 5.698 4.479 9.581l-16.441 45.156c-1.39 3.884-5.698 5.896-9.553 4.478-3.884-1.417-5.896-5.697-4.507-9.581zm-39.997 0c1.418-3.883 5.698-5.868 9.582-4.479 3.883 1.417 5.896 5.698 4.479 9.581l-16.441 45.156c-1.389 3.884-5.697 5.896-9.582 4.478-3.884-1.417-5.868-5.697-4.478-9.581zm-39.997 0c1.389-3.883 5.697-5.868 9.581-4.479 3.883 1.417 5.896 5.698 4.479 9.581l-16.441 45.156c-1.389 3.884-5.697 5.896-9.581 4.478-3.883-1.417-5.896-5.697-4.479-9.581zm-39.997 0c1.389-3.883 5.697-5.868 9.581-4.479 3.883 1.417 5.867 5.698 4.479 9.581l-16.441 45.156c-1.417 3.884-5.697 5.896-9.58 4.478-3.884-1.417-5.897-5.697-4.479-9.581zm-39.998 0c1.389-3.883 5.697-5.868 9.581-4.479 3.884 1.417 5.868 5.698 4.478 9.581l-16.44 45.156c-1.418 3.884-5.698 5.896-9.581 4.478-3.884-1.417-5.897-5.697-4.48-9.581zm-40.025 0c1.418-3.883 5.698-5.868 9.581-4.479 3.884 1.417 5.896 5.698 4.507 9.581l-16.44 45.156c-1.417 3.884-5.697 5.896-9.581 4.478-3.884-1.417-5.896-5.697-4.479-9.581zm-39.997 0c1.417-3.883 5.697-5.868 9.58-4.479 3.884 1.417 5.896 5.698 4.48 9.581l-16.413 45.156c-1.417 3.884-5.697 5.896-9.581 4.478-3.884-1.417-5.895-5.697-4.479-9.581zm-39.997 0c1.417-3.883 5.697-5.868 9.581-4.479 3.883 1.417 5.896 5.698 4.479 9.581l-16.412 45.156c-1.418 3.884-5.698 5.896-9.582 4.478-3.883-1.417-5.895-5.697-4.479-9.581zm-39.998 0c1.417-3.883 5.697-5.868 9.581-4.479 3.885 1.417 5.896 5.698 4.479 9.581l-16.413 45.156c-1.418 3.884-5.698 5.896-9.581 4.478-3.884-1.417-5.896-5.697-4.508-9.581zm-39.998 0c1.417-3.883 5.698-5.868 9.581-4.479 3.884 1.417 5.896 5.698 4.479 9.581l-16.44 45.156c-1.389 3.884-5.698 5.896-9.581 4.478-3.884-1.417-5.868-5.697-4.479-9.581z" fill="#966a5b"/><g clip-rule="evenodd" fill-rule="evenodd"><path d="m205.996 195.976h43.484c4.393 0 7.993 3.601 7.993 7.994v24.009c0 4.394-3.6 7.994-7.993 7.994h-43.484c-4.422 0-8.022-3.6-8.022-7.994v-24.009c0-4.394 3.6-7.994 8.022-7.994z" fill="#ffe09f"/><path d="m224.479 195.976h25.002c4.393 0 7.993 3.601 7.993 7.994v24.009c0 4.394-3.6 7.994-7.993 7.994h-25.002c4.394 0 7.994-3.6 7.994-7.994v-24.009c0-4.394-3.601-7.994-7.994-7.994z" fill="#f6d190"/><path d="m405.926 66.97c1.871 4.989-.368 8.589-4.762 10.091l-123.933 42.407-4.733-37.106 4.733-28.404 87.62-29.962z" fill="#80b4fb"/><path d="m245.03 46.872c2.579 4.932 6.576 7.086 11.707 7.086l20.494 65.51v78.492c0 4.422-3.6 8.022-7.993 8.022h-83c-4.394 0-7.993-3.6-7.993-8.022v-123.989-60.01c0-5.244 2.636-7.994 7.993-7.994h29.51c5.159 0 9.298 2.494 11.679 7.086z" fill="#b1e4f9"/><path d="m252.23 53.306c1.389.454 2.891.652 4.507.652h20.494v144.002c0 4.422-3.6 8.022-7.993 8.022h-25.002c4.394 0 7.994-3.6 7.994-8.022z" fill="#90d8f9"/><path d="m389.825 23.883 16.101 43.087c1.871 4.989-.368 8.589-4.762 10.091l-22.168 7.597c4.395-1.53 6.635-5.102 4.764-10.091l-18.908-50.57 14.599-5.018c.531-.172 3.488-1.072 6.541.56 2.591 1.386 3.585 3.707 3.833 4.344z" fill="#61a2f9"/><path d="m302.801 45.228 58.678-20.069c1.077 3.147 1.644 6.52 1.644 10.035 0 17.121-13.861 30.983-30.983 30.983-13.607-.001-25.172-8.76-29.339-20.949z" fill="#d57080"/><path d="m338.064 33.152 23.415-7.994c1.077 3.147 1.644 6.52 1.644 10.035 0 17.121-13.861 30.983-30.983 30.983-4.45 0-8.674-.936-12.501-2.609 10.885-4.818 18.481-15.704 18.481-28.375 0-.679 0-1.36-.056-2.04z" fill="#cb5769"/><path d="m178.245 174.971h34.497c8.25 0 14.996-6.747 14.996-14.996v-75.005c0-8.249-6.746-14.996-14.996-14.996h-34.497z" fill="#d57080"/><path d="m187.741 174.971h25.001c8.25 0 14.996-6.747 14.996-14.996v-75.005c0-8.249-6.746-14.996-14.996-14.996h-25.001c8.248 0 14.995 6.747 14.995 14.996v75.005c0 8.249-6.747 14.996-14.995 14.996z" fill="#cb5769"/></g><path d="m180.23 154.986c-.681 0-1.361-.113-1.984-.284v-14.457c.623-.17 1.304-.284 1.984-.284h14.768c4.139 0 7.484 3.373 7.484 7.512s-3.346 7.512-7.484 7.512h-14.768zm0-50.004c-.681 0-1.361-.114-1.984-.284v-14.456c.623-.17 1.304-.284 1.984-.284h14.768c4.139 0 7.484 3.373 7.484 7.512s-3.346 7.512-7.484 7.512zm0 25.002c-.681 0-1.361-.113-1.984-.283v-14.457c.623-.17 1.304-.283 1.984-.283h14.768c4.139 0 7.484 3.373 7.484 7.512s-3.346 7.512-7.484 7.512h-14.768z" fill="#c63d4f"/></g></svg>