<svg id="Layer_1" height="512" viewBox="0 0 512 512" width="512" xmlns="http://www.w3.org/2000/svg" data-name="Layer 1"><path d="m404.18 102.99 32.3 154.53-85.3-46.66z" fill="#616d77"/><path d="m436.48 257.52-16.95 139.68-68.35-186.34z" fill="#505c63"/><path d="m351.18 210.86 68.35 186.34-191.36-48.1-50.14-63.85z" fill="#798795"/><path d="m419.53 397.2-52.28 85.89-142.66-43.11 3.58-90.88z" fill="#616d77"/><path d="m404.18 102.99-53 107.87-57.42-108.24.22-91.62z" fill="#8e99a3"/><path d="m367.25 483.09-163.86 17.91-95.05-47.6 116.25-13.42z" fill="#505c63"/><path d="m293.76 102.62 57.42 108.24-173.15 74.39 4.43-89.01z" fill="#616d77"/><path d="m293.98 11-.22 91.62-93.18-22.33z" fill="#93a1ad"/><path d="m293.76 102.62-111.3 93.62-73.82-76.96 91.94-38.99z" fill="#798795"/><path d="m178.03 285.25 50.14 63.85-3.58 90.88-116.25 13.42-32.82-118.55z" fill="#8e99a3"/><path d="m108.64 119.28 73.82 76.96-4.43 89.01-102.51 49.6z" fill="#93a1ad"/><path d="m155.163 447.995-46.823 5.405 95.05 47.6 40.105-4.383z" fill="#414a4f"/><path d="m293.98 11-93.4 69.29 40.987 9.822 52.313-37.346z" fill="#748089"/><path d="m137.306 149.166-28.666-29.886-33.12 215.57 42.413-20.522z" fill="#79848c"/><path d="m241.567 90.112-40.987-9.822-91.94 38.99 28.666 29.886z" fill="#5e6a75"/><path d="m75.52 334.85 32.82 118.55 46.823-5.405-37.23-133.667z" fill="#747c82"/><g fill="#284268"><path d="m410.049 101.763a6 6 0 0 0 -2.028-3.379l-110.2-91.99a6 6 0 0 0 -7.42-.213l-92.825 68.862-91.276 38.715a6 6 0 0 0 -3.588 4.613l-33.121 215.566a6 6 0 0 0 .148 2.512l32.817 118.556a6 6 0 0 0 3.095 3.765l95.049 47.6a5.987 5.987 0 0 0 3.339.6l163.861-17.916a6 6 0 0 0 4.473-2.844l52.287-85.887a5.983 5.983 0 0 0 .831-2.4l16.944-139.683a6.024 6.024 0 0 0 -.083-1.95zm17.894 144.249-68.638-37.549 42.578-87.118zm-127.994-222.212 96.763 80.777-45.739 93.091-51.208-96.533zm110.051 364.819-178.381-44.834-44.047-56.1 160.154-68.813zm-118.059-276.342 50.644 95.74-158.085 67.923 3.808-76.635zm-3.99-89.334-.171 72.073-73.3-17.567zm-86.851 63.641 79.7 19.1-97.9 82.354-63.9-66.63zm-88.38 45.659 63.613 66.357-4.115 82.8-89.032 43.075zm-30.081 205.827 93.661-45.315 45.787 58.318-3.291 83.538-106.045 12.244zm121.853 156.773-75.463-37.787 95.012-10.971 113.305 34.237zm160.046-18.843-133.773-40.419 3.106-78.857 176.306 44.313zm52.043-104.274-54.27-147.943 67.722 37.047z"/><path d="m123.133 161.9a6 6 0 0 0 -6.9 4.936l-.6 3.6a6 6 0 0 0 4.935 6.9 6.078 6.078 0 0 0 .991.082 6 6 0 0 0 5.912-5.018l.6-3.6a6 6 0 0 0 -4.938-6.9z"/><path d="m119.362 184.6a6 6 0 0 0 -6.9 4.937l-11.11 66.928a6 6 0 0 0 4.936 6.9 6.063 6.063 0 0 0 .989.082 6 6 0 0 0 5.912-5.018l11.111-66.924a6 6 0 0 0 -4.938-6.905z"/></g></svg>