<svg height="512pt" viewBox="-42 0 512 512" width="512pt" xmlns="http://www.w3.org/2000/svg"><path d="m331.808594 512h-314.808594c-9.390625 0-17-7.609375-17-17v-436.667969c0-9.390625 7.609375-17 17-17h314.808594c9.390625 0 17 7.609375 17 17v436.667969c0 9.390625-7.609375 17-17 17zm0 0" fill="#ffded5"/><path d="m331.117188 41.332031h-18.535157v415.878907c0 9.773437-7.921875 17.691406-17.691406 17.691406h-294.890625v19.40625c0 9.769531 7.921875 17.691406 17.691406 17.691406h313.425782c9.769531 0 17.691406-7.921875 17.691406-17.691406v-435.285156c0-9.769532-7.921875-17.691407-17.691406-17.691407zm0 0" fill="#f7c6ba"/><path d="m233.632812 71.804688h-118.457031c-5.523437 0-10-4.476563-10-10v-37.804688c0-13.253906 10.746094-24 24-24h90.457031c13.253907 0 24 10.746094 24 24v37.804688c0 5.519531-4.476562 10-10 10zm0 0" fill="#ff6914"/><path d="m218.652344 0h-6.371094c.519531 2.007812.796875 4.113281.796875 6.28125v36.417969c0 5.75-4.660156 10.410156-10.40625 10.410156h-97.496094v8.285156c0 5.75 4.660157 10.410157 10.410157 10.410157h117.640624c5.746094 0 10.40625-4.660157 10.40625-10.410157v-36.414062c0-13.796875-11.183593-24.980469-24.980468-24.980469zm0 0" fill="#ed500a"/><path d="m412.148438 162.484375c0 50.015625-40.546876 90.5625-90.5625 90.5625-50.015626 0-90.5625-40.546875-90.5625-90.5625 0-50.019531 40.546874-90.5625 90.5625-90.5625 50.015624 0 90.5625 40.542969 90.5625 90.5625zm0 0" fill="#ff8900"/><path d="m354.933594 78.257812c15.007812 16.164063 24.195312 37.8125 24.195312 61.613282 0 50.015625-40.550781 90.5625-90.566406 90.5625-11.773438 0-23.023438-2.25-33.34375-6.339844 16.539062 17.808594 40.148438 28.953125 66.367188 28.953125 50.015624 0 90.5625-40.546875 90.5625-90.5625 0-38.242187-23.703126-70.945313-57.214844-84.226563zm0 0" fill="#ff6914"/><path d="m316.820312 202.382812c-4.691406 0-9.191406-1.867187-12.507812-5.183593l-43.324219-43.324219c-6.910156-6.910156-6.910156-18.113281 0-25.023438 6.90625-6.910156 18.109375-6.910156 25.019531 0l30.8125 30.8125 80.058594-80.054687c6.90625-6.910156 18.109375-6.910156 25.019532 0 6.910156 6.910156 6.910156 18.113281 0 25.023437l-92.566407 92.566407c-3.316406 3.316406-7.816406 5.183593-12.511719 5.183593zm0 0" fill="#0882bf"/><path d="m421.898438 79.609375c-2.175782-2.175781-4.78125-3.664063-7.542969-4.46875 1.746093 6 .257812 12.742187-4.472657 17.472656l-92.566406 92.570313c-3.320312 3.316406-7.820312 5.179687-12.511718 5.179687-4.695313 0-9.195313-1.863281-12.511719-5.183593l12.015625 12.019531c3.320312 3.316406 7.820312 5.183593 12.511718 5.183593 4.695313 0 9.195313-1.867187 12.511719-5.183593l92.566407-92.566407c6.910156-6.910156 6.910156-18.113281 0-25.023437zm0 0" fill="#005ca0"/><g fill="#0882bf"><path d="m202.878906 201.984375h-94.292968c-4.273438 0-7.738282-3.464844-7.738282-7.738281 0-4.273438 3.464844-7.738282 7.738282-7.738282h94.292968c4.273438 0 7.738282 3.464844 7.738282 7.738282 0 4.273437-3.464844 7.738281-7.738282 7.738281zm0 0"/><path d="m93.8125 122.105469h-52.070312c-4.273438 0-7.734376-3.464844-7.734376-7.738281 0-4.273438 3.460938-7.738282 7.734376-7.738282h52.070312c4.277344 0 7.738281 3.464844 7.738281 7.738282 0 4.273437-3.460937 7.738281-7.738281 7.738281zm0 0"/><path d="m202.878906 237.882812h-94.292968c-4.273438 0-7.738282-3.464843-7.738282-7.738281 0-4.273437 3.464844-7.738281 7.738282-7.738281h94.292968c4.273438 0 7.738282 3.464844 7.738282 7.738281 0 4.273438-3.464844 7.738281-7.738282 7.738281zm0 0"/><path d="m235.449219 295.839844h-126.863281c-4.273438 0-7.738282-3.464844-7.738282-7.738282 0-4.273437 3.464844-7.738281 7.738282-7.738281h126.863281c4.277343 0 7.738281 3.464844 7.738281 7.738281.003906 4.277344-3.460938 7.738282-7.738281 7.738282zm0 0"/><path d="m172.019531 331.738281h-63.433593c-4.273438 0-7.738282-3.464843-7.738282-7.734375 0-4.273437 3.464844-7.738281 7.738282-7.738281h63.433593c4.273438 0 7.738281 3.464844 7.738281 7.738281 0 4.269532-3.464843 7.734375-7.738281 7.734375zm0 0"/><path d="m202.878906 389.796875h-94.292968c-4.273438 0-7.738282-3.46875-7.738282-7.738281 0-4.273438 3.464844-7.738282 7.738282-7.738282h94.292968c4.273438 0 7.738282 3.464844 7.738282 7.738282 0 4.269531-3.464844 7.738281-7.738282 7.738281zm0 0"/><path d="m235.449219 425.695312h-126.863281c-4.273438 0-7.738282-3.464843-7.738282-7.738281 0-4.273437 3.464844-7.738281 7.738282-7.738281h126.863281c4.277343 0 7.738281 3.464844 7.738281 7.738281 0 4.273438-3.460938 7.738281-7.738281 7.738281zm0 0"/></g><path d="m81.6875 211.058594c0 12.988281-10.53125 23.519531-23.519531 23.519531s-23.519531-10.53125-23.519531-23.519531c0-12.988282 10.53125-23.519532 23.519531-23.519532s23.519531 10.53125 23.519531 23.519532zm0 0" fill="#ff8900"/><path d="m81.6875 306.054688c0 12.988281-10.53125 23.515624-23.519531 23.515624s-23.519531-10.527343-23.519531-23.515624c0-12.992188 10.53125-23.519532 23.519531-23.519532s23.519531 10.527344 23.519531 23.519532zm0 0" fill="#ff8900"/><path d="m81.6875 400.007812c0 12.988282-10.53125 23.519532-23.519531 23.519532s-23.519531-10.53125-23.519531-23.519532c0-12.988281 10.53125-23.519531 23.519531-23.519531s23.519531 10.53125 23.519531 23.519531zm0 0" fill="#ff8900"/></svg>