<svg width="439" height="482" viewBox="0 0 439 482" fill="none" xmlns="http://www.w3.org/2000/svg">
<path d="M425.406 231H258.249V275.414C258.249 287.695 240.786 297.638 219.259 297.638C197.723 297.638 180.269 287.695 180.269 275.414V231H13.584C6.08439 231 0 234.462 0 238.738V473.262C0 477.538 6.08439 481 13.584 481H425.406C432.916 481 439 477.538 439 473.262V238.738C439 234.462 432.916 231 425.406 231Z" fill="#B79062"/>
<path d="M154.362 386.498H137.823C129.895 386.498 123.469 391.848 123.469 398.448V427.444C123.469 434.044 129.895 439.394 137.823 439.394H154.362C162.29 439.394 168.717 434.044 168.717 427.444V398.448C168.717 391.848 162.29 386.498 154.362 386.498Z" fill="#DDB978"/>
<path d="M390.229 296.734H373.689C365.762 296.734 359.335 302.084 359.335 308.684V322.453C359.335 329.053 365.762 334.403 373.689 334.403H390.229C398.156 334.403 404.583 329.053 404.583 322.453V308.684C404.583 302.084 398.156 296.734 390.229 296.734Z" fill="#DDB978"/>
<path d="M296.845 349.631H279.343C271.415 349.631 264.988 354.981 264.988 361.58V368.938C264.988 375.537 271.415 380.888 279.343 380.888H296.845C304.772 380.888 311.199 375.537 311.199 368.938V361.58C311.199 354.981 304.772 349.631 296.845 349.631Z" fill="#DDB978"/>
<path d="M256.856 450H239.354C231.427 450 225 455.35 225 461.95V469.307C225 475.907 231.427 481.257 239.354 481.257H256.856C264.784 481.257 271.211 475.907 271.211 469.307V461.95C271.211 455.35 264.784 450 256.856 450Z" fill="#DDB978"/>
<path d="M64.8295 315.168H44.4391C36.5115 315.168 30.085 320.518 30.085 327.118V344.093C30.085 350.692 36.5115 356.042 44.4391 356.042H64.8295C72.7571 356.042 79.1836 350.692 79.1836 344.093V327.118C79.1836 320.518 72.7571 315.168 64.8295 315.168Z" fill="#DDB978"/>
<path d="M393.117 422.563H372.726C364.799 422.563 358.372 427.914 358.372 434.513V451.488C358.372 458.088 364.799 463.438 372.726 463.438H393.117C401.044 463.438 407.471 458.088 407.471 451.488V434.513C407.471 427.914 401.044 422.563 393.117 422.563Z" fill="#DDB978"/>
<path d="M202 223H15.2215C11.1835 223.002 7.31187 224.198 4.4576 226.326C1.60333 228.454 -1.01266e-06 231.339 0 234.346V256.662C0 259.669 1.60368 262.553 4.45826 264.679C7.31284 266.805 11.1845 268 15.2215 268H202V223Z" fill="#8AD85D"/>
<path d="M424.786 223H250V268H424.786C428.554 268 432.168 266.806 434.833 264.68C437.499 262.553 438.997 259.669 439 256.662V234.346C439 231.337 437.502 228.451 434.837 226.323C432.171 224.195 428.556 223 424.786 223Z" fill="#8AD85D"/>
<rect x="172" y="268" width="38" height="28" fill="#B79062"/>
<rect x="217" y="223" width="222" height="258" fill="black" fill-opacity="0.1"/>
<path d="M265.582 2.59127C256.757 5.34897 228.364 16.219 221.946 43.3139C215.383 15.5891 185.807 4.854 177.734 2.41129C176.539 2.05116 175.324 1.78268 174.096 1.60776C42.3495 -17.0083 46.0101 132.184 46.0101 132.184C46.0101 132.563 46.0101 132.942 46.0101 133.328C46.0101 146.123 50.6191 158.394 58.8232 167.441C67.0273 176.489 78.1544 181.572 89.7567 181.572C101.359 181.572 112.486 176.489 120.69 167.441C128.894 158.394 133.503 146.123 133.503 133.328C133.503 133.026 133.503 132.383 133.503 131.528C133.434 123.969 135.929 116.655 140.5 111.022C145.071 105.389 151.387 101.844 158.206 101.084C159.78 100.917 161.449 100.816 163.214 100.782C192.592 100.3 190.96 131.882 189.712 140.83C189.496 142.357 189.387 143.9 189.386 145.445L189.1 311.588C189.096 315.581 189.806 319.535 191.189 323.225C192.572 326.915 194.601 330.268 197.16 333.093C199.719 335.917 202.758 338.158 206.103 339.686C209.448 341.215 213.033 342.001 216.654 342H227.146C234.454 342 241.462 338.799 246.629 333.1C251.797 327.402 254.7 319.673 254.7 311.614V144.744C254.702 143.61 254.645 142.477 254.53 141.35C253.802 134.234 252.106 102.241 280.761 102.71C282.49 102.745 284.124 102.841 285.663 103C292.469 103.745 298.78 107.26 303.362 112.859C307.945 118.459 310.471 125.74 310.448 133.283V133.328C310.448 146.123 315.057 158.394 323.261 167.441C331.465 176.489 342.592 181.572 354.194 181.572C365.797 181.572 376.924 176.489 385.128 167.441C393.332 158.394 397.941 146.123 397.941 133.328C397.941 132.942 397.941 132.563 397.912 132.184H397.941C397.941 132.184 404.813 -13.5692 270.187 1.62705C268.63 1.80012 267.089 2.12276 265.582 2.59127Z" fill="#70E0E5"/>
<path d="M191.5 336C201.717 336 210 328.837 210 320C210 311.163 201.717 304 191.5 304C181.283 304 173 311.163 173 320C173 328.837 181.283 336 191.5 336Z" fill="#BDEFEE"/>
<path d="M225 309C231.075 309 236 304.523 236 299C236 293.477 231.075 289 225 289C218.925 289 214 293.477 214 299C214 304.523 218.925 309 225 309Z" fill="#BDEFEE"/>
<path d="M239 337C245.075 337 250 332.747 250 327.5C250 322.253 245.075 318 239 318C232.925 318 228 322.253 228 327.5C228 332.747 232.925 337 239 337Z" fill="#BDEFEE"/>
<path d="M254 294C265.598 294 275 285.493 275 275C275 264.507 265.598 256 254 256C242.402 256 233 264.507 233 275C233 285.493 242.402 294 254 294Z" fill="#BDEFEE"/>
<path d="M71.5 136C80.6127 136 88 129.508 88 121.5C88 113.492 80.6127 107 71.5 107C62.3873 107 55 113.492 55 121.5C55 129.508 62.3873 136 71.5 136Z" fill="#BDEFEE"/>
<path d="M116.5 107C125.613 107 133 100.284 133 92C133 83.7157 125.613 77 116.5 77C107.387 77 100 83.7157 100 92C100 100.284 107.387 107 116.5 107Z" fill="#BDEFEE"/>
<path d="M358.5 123C367.613 123 375 116.508 375 108.5C375 100.492 367.613 94 358.5 94C349.387 94 342 100.492 342 108.5C342 116.508 349.387 123 358.5 123Z" fill="#BDEFEE"/>
<path d="M343.5 71C352.613 71 360 64.2843 360 56C360 47.7157 352.613 41 343.5 41C334.387 41 327 47.7157 327 56C327 64.2843 334.387 71 343.5 71Z" fill="#BDEFEE"/>
<path d="M291 99C299.837 99 307 92.732 307 85C307 77.268 299.837 71 291 71C282.163 71 275 77.268 275 85C275 92.732 282.163 99 291 99Z" fill="#BDEFEE"/>
<path d="M96 65C105.389 65 113 58.5081 113 50.5C113 42.4919 105.389 36 96 36C86.6112 36 79 42.4919 79 50.5C79 58.5081 86.6112 65 96 65Z" fill="#BDEFEE"/>
<path d="M191.5 276C206.688 276 219 265.031 219 251.5C219 237.969 206.688 227 191.5 227C176.312 227 164 237.969 164 251.5C164 265.031 176.312 276 191.5 276Z" fill="#BDEFEE"/>
<path d="M69.7359 181C69.7359 181 46.2569 209 68.7422 209C91.2276 209 69.7359 181.643 69.7359 181Z" fill="#70E0E5"/>
<path d="M65.7359 231C65.7359 231 42.2569 259 64.7422 259C87.2276 259 65.7359 231.643 65.7359 231Z" fill="#70E0E5"/>
<path d="M100.736 192C100.736 192 77.2568 221 99.7422 221C122.228 221 100.736 192.666 100.736 192Z" fill="#70E0E5"/>
<path d="M333.199 195C333.199 195 310.894 223 332.255 223C353.616 223 333.199 195.643 333.199 195Z" fill="#70E0E5"/>
<path d="M382.736 223C382.736 223 359.257 251 381.742 251C404.228 251 382.736 223.643 382.736 223Z" fill="#70E0E5"/>
<path d="M370.199 178C370.199 178 347.894 207 369.255 207C390.616 207 370.199 178.666 370.199 178Z" fill="#70E0E5"/>
</svg>
