<?xml version="1.0" encoding="iso-8859-1"?>
<!-- Generator: Adobe Illustrator 19.0.0, SVG Export Plug-In . SVG Version: 6.00 Build 0)  -->
<svg version="1.1" id="Capa_1" xmlns="http://www.w3.org/2000/svg" xmlns:xlink="http://www.w3.org/1999/xlink" x="0px" y="0px"
	 viewBox="0 0 511.999 511.999" style="enable-background:new 0 0 511.999 511.999;" xml:space="preserve">
<path style="fill:#9E5015;" d="M106.004,165.903v59.998c0,8.399-6.599,15-15,15s-15-6.601-15-15v-59.998c0-8.401,6.599-15,15-15
	S106.004,157.502,106.004,165.903z"/>
<path style="fill:#663300;" d="M106.004,165.903v59.998c0,8.399-6.599,15-15,15v-89.997
	C99.404,150.903,106.004,157.502,106.004,165.903z"/>
<path style="fill:#78B22A;" d="M179.502,159.302L104.504,7.907c-2.701-5.099-8.101-7.8-13.5-7.8c-5.399,0-10.8,2.701-13.5,7.8
	L1.507,159.302c-2.1,4.501-2.1,10.201,0.601,14.401c2.999,4.499,7.8,7.2,12.9,7.2h150.996c5.099,0,9.901-2.701,12.9-7.2
	C181.602,169.503,181.602,163.802,179.502,159.302z"/>
<path style="fill:#679C20;" d="M178.901,173.702c-2.999,4.499-7.8,7.2-12.9,7.2H91.003V0.107c5.4,0,10.8,2.701,13.5,7.8
	l74.998,151.395C181.602,163.802,181.602,169.503,178.901,173.702z"/>
<path style="fill:#9E5015;" d="M436.994,255.9v59.998c0,8.399-6.599,15-15,15s-15-6.601-15-15V255.9c0-8.401,6.599-15,15-15
	S436.994,247.499,436.994,255.9z"/>
<path style="fill:#663300;" d="M436.994,255.9v59.998c0,8.399-6.599,15-15,15V240.9C430.394,240.9,436.994,247.499,436.994,255.9z"
	/>
<path style="fill:#93D632;" d="M510.492,249.299L435.494,99.304c-2.701-5.099-8.101-7.8-13.5-7.8s-10.8,2.701-13.5,7.8
	l-74.998,149.996c-2.1,4.501-2.1,10.201,0.601,14.401c2.999,4.499,7.8,7.2,12.9,7.2h149.996c5.099,0,9.901-2.701,12.9-7.2
	C512.592,259.5,512.592,253.799,510.492,249.299z"/>
<path style="fill:#78B22A;" d="M509.891,263.7c-2.999,4.499-7.8,7.2-12.9,7.2h-74.998V91.503c5.4,0,10.8,2.701,13.5,7.8
	l74.998,149.996C512.592,253.799,512.592,259.5,509.891,263.7z"/>
<path style="fill:#9E5015;" d="M196.001,165.903v59.998c0,8.399-6.599,15-15,15c-8.401,0-15-6.601-15-15v-59.998
	c0-8.401,6.599-15,15-15C189.402,150.903,196.001,157.502,196.001,165.903z"/>
<path style="fill:#663300;" d="M196.001,165.903v59.998c0,8.399-6.599,15-15,15v-89.997
	C189.401,150.903,196.001,157.502,196.001,165.903z"/>
<path style="fill:#93D632;" d="M269.499,159.302L194.501,7.907c-2.701-5.099-8.101-7.8-13.5-7.8c-5.399,0-10.8,2.701-13.5,7.8
	L92.504,159.302c-2.1,4.501-2.1,10.201,0.601,14.401c2.999,4.499,7.8,7.2,12.9,7.2H256c5.099,0,9.901-2.701,12.9-7.2
	C271.599,169.503,271.599,163.802,269.499,159.302z"/>
<path style="fill:#78B22A;" d="M268.898,173.702c-2.999,4.499-7.8,7.2-12.9,7.2h-74.998V0.107c5.4,0,10.8,2.701,13.5,7.8
	l74.998,151.395C271.599,163.802,271.599,169.503,268.898,173.702z"/>
<path style="fill:#707789;" d="M511.992,451.894v44.999c0,8.399-6.599,15-15,15H15.007c-8.401,0-15-6.601-15-15v-44.999
	l30.999-30.999h450.987L511.992,451.894z"/>
<path style="fill:#555A66;" d="M481.993,420.895l29.999,30.999v44.999c0,8.399-6.599,15-15,15H255.999v-90.997H481.993z"/>
<path style="fill:#BC6829;" d="M511.992,315.898v44.999l-29.999,29.999H337.096c-28.199,0-56.798-7.2-81.097-20.699
	c-6.599-3.6-12.9-7.8-18.899-12.301l-47.998-35.998c-18-13.5-40.5-20.999-62.999-20.999H31.006L0.007,270.9v-44.999
	c0-8.401,6.599-15,15-15h150.996c22.499,0,44.999,7.5,62.997,20.999l27,20.399l44.999,33.599c12.9,9.6,29.8,15,45.999,15h149.996
	C505.392,300.899,511.992,307.498,511.992,315.898z"/>
<path style="fill:#9E5015;" d="M511.992,315.898v44.999l-29.999,29.999H337.096c-28.199,0-56.798-7.2-81.097-20.699V252.3
	l44.999,33.599c12.9,9.6,29.8,15,45.999,15h149.996C505.392,300.899,511.992,307.498,511.992,315.898z"/>
<path style="fill:#FFA426;" d="M511.992,360.897v90.997H0.007V270.9h126.095c28.8,0,57.599,9.6,80.998,26.998l47.998,35.999
	c0.3,0.3,0.601,0.3,0.901,0.601c22.799,17.099,52.299,26.399,81.097,26.399H511.992z"/>
<path style="fill:#FF873C;" d="M511.992,360.897v90.997H255.999V334.498c22.799,17.099,52.299,26.399,81.097,26.399H511.992z"/>
<g>
	<circle style="fill:#555A66;" cx="76.007" cy="375.899" r="15"/>
	<circle style="fill:#555A66;" cx="196.003" cy="375.899" r="15"/>
	<circle style="fill:#555A66;" cx="136.005" cy="345.899" r="15"/>
</g>
<g>
</g>
<g>
</g>
<g>
</g>
<g>
</g>
<g>
</g>
<g>
</g>
<g>
</g>
<g>
</g>
<g>
</g>
<g>
</g>
<g>
</g>
<g>
</g>
<g>
</g>
<g>
</g>
<g>
</g>
</svg>
