<svg id="Capa_1" enable-background="new 0 0 512 512" height="512" viewBox="0 0 512 512" width="512" xmlns="http://www.w3.org/2000/svg"><g><g><path d="m181 121h-150c-16.569 0-31-13.431-31-30v-60h172.211l38.789 38.789v21.211c0 16.569-13.431 30-30 30z" fill="#97de3d"/></g><g><path d="m481 121h-180c-16.569 0-30-13.431-30-30v-60h241v60c0 16.569-14.431 30-31 30z" fill="#59c36a"/></g><path d="m451 346 61 15v120h-512v-120l61-15-61-15v-45l106-30 142.8 30-1.201 9 7.202-9 136.199-30 121 30v45z" fill="#fc6"/><path d="m256 481h256v-120l-61-15 61-15v-45l-121-30-135 29.736z" fill="#f09040"/><g><path d="m271 91v51.299l54.901 54.901-71.1 88.8h257.199v-195zm-60 96.899v-96.899h-211v195h248.8l8.101-67.2z" fill="#ab633d"/></g><path d="m512 286v-195h-241v51.299l54.901 54.9-69.901 87.303v1.498z" fill="#824c19"/><g id="Geological_crack_1_"><g><path d="m61 151h30v30h-30z" fill="#cd7f57"/></g><g><path d="m91 211h30v30h-30z" fill="#cd7f57"/></g><g><path d="m391 211h30v30h-30z" fill="#cd7f57"/></g><g><path d="m421 151h30v30h-30z" fill="#cd7f57"/></g><g><path d="m0 331h91v30h-91z" fill="#ffdc91"/></g><g><path d="m61 391h90v30h-90z" fill="#ffdc91"/></g><g><path d="m391 391h60v30h-60z" fill="#fac063"/></g><g><path d="m421 331h91v30h-91z" fill="#fac063"/></g><g><path d="m271 331h90v30h-90z" fill="#fac063"/></g><g><path d="m241 391h120v30h-120z" fill="#ffdc91"/></g><g><path d="m121 331h60v30h-60z" fill="#ffdc91"/></g></g><g><path d="m256 226.273.901-7.473-.901-.606z" fill="#fac063"/></g><path d="m256 391h105v30h-105z" fill="#fac063"/></g></svg>