<svg width="512" height="512" viewBox="0 0 512 512" fill="none" xmlns="http://www.w3.org/2000/svg">
<g clip-path="url(#clip0)">
<path d="M314.624 263.246L183.495 168.329L-12 188.329V428.906L3 458.906H485L500 428.906V313.246L314.624 263.246Z" fill="#FFA64D"/>
<path d="M238.458 208.114V458.906H485L500 428.906V313.246L314.624 263.246L238.458 208.114Z" fill="#ED8600"/>
<path d="M53.635 235.521C45.351 235.521 38.635 242.237 38.635 250.521V260.09C38.635 268.374 45.351 275.09 53.635 275.09C61.919 275.09 68.635 268.374 68.635 260.09V250.521C68.635 242.236 61.919 235.521 53.635 235.521Z" fill="#ED8600"/>
<path d="M113.809 327.834C105.525 327.834 98.809 334.55 98.809 342.834V352.404C98.809 360.688 105.525 367.404 113.809 367.404C122.093 367.404 128.809 360.688 128.809 352.404V342.834C128.809 334.55 122.093 327.834 113.809 327.834Z" fill="#ED8600"/>
<path d="M183.671 265.262C175.387 265.262 168.671 271.978 168.671 280.262V289.831C168.671 298.115 175.387 304.831 183.671 304.831C191.955 304.831 198.671 298.115 198.671 289.831V280.262C198.671 271.978 191.955 265.262 183.671 265.262Z" fill="#ED8600"/>
<path d="M254 351.291C245.716 351.291 239 358.007 239 366.291V375.86C239 384.144 245.716 390.86 254 390.86C262.284 390.86 269 384.144 269 375.86V366.291C269 358.007 262.284 351.291 254 351.291Z" fill="#D36705"/>
<path d="M500 428.906H-12V510.502C-12 518.786 -5.284 525.502 3 525.502H485C493.284 525.502 500 518.786 500 510.502V428.906Z" fill="#ED8600"/>
<path d="M238.458 525.502H485C493.284 525.502 500 518.786 500 510.502V428.906H238.458V525.502Z" fill="#D36705"/>
<path d="M314.624 313.246H360.785L375.785 303.246L390.785 313.246H500V236.414C500 228.13 493.284 221.414 485 221.414H442.019L429.201 231.414L412.019 221.414H370.972L301.065 149.321L286.063 154.85L271.664 119.001L254.262 101.055C251.437 98.142 247.552 96.497 243.493 96.497H81.4L68.635 102.497L51.4 96.497H3C-5.284 96.497 -12 103.213 -12 111.497V188.328H110.112L125.112 178.328L140.112 188.328H183.495L203.037 206.944L218.002 201.2L232.967 235.456L238.389 240.621L276.066 276.513L291.065 270.802L306.064 305.091L314.624 313.246Z" fill="#B36B24"/>
<path d="M66.401 126.041C74.685 126.041 81.401 119.325 81.401 111.041V96.498H51.401V111.041C51.401 119.325 58.117 126.041 66.401 126.041Z" fill="#99481F"/>
<path d="M485 221.414H442.019L429.201 231.414L412.019 221.414H370.972L301.065 149.321L286.063 154.85L271.664 119.001L254.262 101.055C251.437 98.142 247.552 96.497 243.493 96.497H238.456L238.386 240.621L276.063 276.513L291.062 270.802L306.061 305.091L314.62 313.245H360.781L375.781 303.245L390.781 313.245H500V236.413C500 228.13 493.284 221.414 485 221.414Z" fill="#99481F"/>
<path d="M125.112 155.087C116.828 155.087 110.112 161.803 110.112 170.087V188.329H140.112V170.087C140.112 161.803 133.396 155.087 125.112 155.087Z" fill="#99481F"/>
<path d="M183.671 116.186C175.387 116.186 168.671 122.902 168.671 131.186V149.721C168.671 158.005 175.387 164.721 183.671 164.721C191.955 164.721 198.671 158.005 198.671 149.721V131.186C198.671 122.901 191.955 116.186 183.671 116.186Z" fill="#99481F"/>
<path d="M427.019 252.788C435.303 252.788 442.019 246.072 442.019 237.788V221.414H412.019V237.788C412.019 246.072 418.735 252.788 427.019 252.788Z" fill="#662828"/>
<path d="M375.786 281.875C367.502 281.875 360.786 288.591 360.786 296.875V313.246H390.786V296.875C390.786 288.591 384.07 281.875 375.786 281.875Z" fill="#662828"/>
<path d="M291.066 258.033C282.782 258.033 276.066 264.749 276.066 273.033V276.514L306.066 305.093V273.033C306.066 264.749 299.35 258.033 291.066 258.033Z" fill="#662828"/>
<path d="M271.066 159.464C271.066 167.748 277.782 174.464 286.066 174.464C294.35 174.464 301.066 167.748 301.066 159.464V149.321L271.124 118.442C271.095 118.821 271.066 119.199 271.066 119.585V159.464Z" fill="#662828"/>
<path d="M233.033 203.342C233.033 195.058 226.317 188.342 218.033 188.342C209.749 188.342 203.033 195.058 203.033 203.342V206.948L233.033 235.392C233.033 235.349 233.033 235.435 233.033 235.392V203.342Z" fill="#99481F"/>
<path d="M-2.89083e-05 282C40.6667 263 145.3 237.3 238.5 286.5V401C196 408.167 98.8 416.9 50 394.5C15.9793 378.884 3.3107 373.377 -2.89083e-05 372.151V372.5C-1.11049 371.894 -1.43828 371.619 -2.89083e-05 372.151V282Z" fill="#007FF4"/>
<path d="M470.5 344.5C378.1 372.5 277.333 318.167 238.5 287.5V400.5C265.3 391.3 423.667 403 499.5 410V333L470.5 344.5Z" fill="#0063BF"/>
<path d="M485.514 181H393.285C390.534 181 388.305 178.771 388.305 176.02V48.0895C388.305 45.3383 390.534 43.109 393.285 43.109H485.514C488.265 43.109 490.495 45.3383 490.495 48.0895V176.02C490.495 178.771 488.265 181 485.514 181Z" fill="#FFDED5"/>
<path d="M485.312 43.109H479.881V164.949C479.881 167.812 477.561 170.132 474.698 170.132H388.305V175.817C388.305 178.679 390.626 181 393.488 181H485.312C488.174 181 490.495 178.679 490.495 175.817V48.292C490.495 45.4299 488.174 43.109 485.312 43.109Z" fill="#F7C6BA"/>
<path d="M456.752 52.0365H422.048C420.429 52.0365 419.118 50.725 419.118 49.1068V38.0312C419.118 34.1483 422.266 31 426.149 31H452.65C456.533 31 459.681 34.1483 459.681 38.0312V49.1068C459.681 50.7239 458.37 52.0365 456.752 52.0365Z" fill="#FF6914"/>
<path d="M452.363 31H450.496C450.649 31.5882 450.73 32.2051 450.73 32.8402V43.5095C450.73 45.1941 449.365 46.5594 447.681 46.5594H419.118V48.9867C419.118 50.6712 420.483 52.0365 422.168 52.0365H456.633C458.316 52.0365 459.681 50.6712 459.681 48.9867V38.3185C459.681 34.2764 456.405 31 452.363 31Z" fill="#ED500A"/>
<path d="M509.051 78.6028C509.051 93.2559 497.172 105.135 482.519 105.135C467.866 105.135 455.987 93.2559 455.987 78.6028C455.987 63.9487 467.866 52.0709 482.519 52.0709C497.172 52.0709 509.051 63.9487 509.051 78.6028Z" fill="#FF8900"/>
<path d="M492.289 53.9271C496.686 58.6627 499.378 65.005 499.378 71.9779C499.378 86.6309 487.497 98.5098 472.844 98.5098C469.395 98.5098 466.099 97.8507 463.076 96.6525C467.921 101.87 474.838 105.135 482.519 105.135C497.172 105.135 509.051 93.2559 509.051 78.6028C509.051 67.3991 502.107 57.8181 492.289 53.9271Z" fill="#FF6914"/>
<path d="M481.123 90.2918C479.749 90.2918 478.43 89.7448 477.459 88.7732L464.766 76.0806C462.742 74.0561 462.742 70.7739 464.766 68.7495C466.789 66.725 470.072 66.725 472.096 68.7495L481.123 77.7766L504.578 54.3231C506.601 52.2986 509.883 52.2986 511.908 54.3231C513.932 56.3475 513.932 59.6297 511.908 61.6541L484.789 88.7732C483.817 89.7448 482.499 90.2918 481.123 90.2918Z" fill="#0882BF"/>
<path d="M511.908 54.3231C511.27 53.6856 510.507 53.2496 509.698 53.0139C510.209 54.7717 509.773 56.7469 508.388 58.1328L481.268 85.253C480.296 86.2246 478.977 86.7705 477.603 86.7705C476.227 86.7705 474.909 86.2246 473.937 85.2519L477.458 88.7732C478.43 89.7448 479.749 90.2918 481.123 90.2918C482.499 90.2918 483.817 89.7448 484.789 88.7732L511.908 61.6541C513.932 59.6297 513.932 56.3475 511.908 54.3231Z" fill="#005CA0"/>
<path d="M447.742 90.1751H420.117C418.865 90.1751 417.85 89.16 417.85 87.908C417.85 86.6561 418.865 85.641 420.117 85.641H447.742C448.994 85.641 450.009 86.6561 450.009 87.908C450.009 89.16 448.994 90.1751 447.742 90.1751Z" fill="#0882BF"/>
<path d="M415.789 66.7731H400.534C399.282 66.7731 398.268 65.758 398.268 64.506C398.268 63.254 399.282 62.2389 400.534 62.2389H415.789C417.042 62.2389 418.056 63.254 418.056 64.506C418.056 65.758 417.042 66.7731 415.789 66.7731Z" fill="#0882BF"/>
<path d="M447.742 100.692H420.117C418.865 100.692 417.85 99.6771 417.85 98.4252C417.85 97.1732 418.865 96.1581 420.117 96.1581H447.742C448.994 96.1581 450.009 97.1732 450.009 98.4252C450.009 99.6771 448.994 100.692 447.742 100.692Z" fill="#0882BF"/>
<path d="M457.284 117.672H420.117C418.865 117.672 417.85 116.657 417.85 115.405C417.85 114.153 418.865 113.138 420.117 113.138H457.284C458.537 113.138 459.551 114.153 459.551 115.405C459.552 116.658 458.537 117.672 457.284 117.672Z" fill="#0882BF"/>
<path d="M438.701 128.189H420.117C418.865 128.189 417.85 127.174 417.85 125.923C417.85 124.671 418.865 123.656 420.117 123.656H438.701C439.953 123.656 440.968 124.671 440.968 125.923C440.968 127.174 439.953 128.189 438.701 128.189Z" fill="#0882BF"/>
<path d="M447.742 145.198H420.117C418.865 145.198 417.85 144.182 417.85 142.931C417.85 141.679 418.865 140.664 420.117 140.664H447.742C448.994 140.664 450.009 141.679 450.009 142.931C450.009 144.182 448.994 145.198 447.742 145.198Z" fill="#0882BF"/>
<path d="M457.284 155.715H420.117C418.865 155.715 417.85 154.7 417.85 153.448C417.85 152.196 418.865 151.181 420.117 151.181H457.284C458.537 151.181 459.551 152.196 459.551 153.448C459.551 154.7 458.537 155.715 457.284 155.715Z" fill="#0882BF"/>
<path d="M412.237 92.8336C412.237 96.6387 409.151 99.7241 405.346 99.7241C401.541 99.7241 398.456 96.6387 398.456 92.8336C398.456 89.0284 401.541 85.9431 405.346 85.9431C409.151 85.9431 412.237 89.0284 412.237 92.8336Z" fill="#FF8900"/>
<path d="M412.237 120.664C412.237 124.47 409.151 127.554 405.346 127.554C401.541 127.554 398.456 124.47 398.456 120.664C398.456 116.858 401.541 113.774 405.346 113.774C409.151 113.774 412.237 116.858 412.237 120.664Z" fill="#FF8900"/>
<path d="M412.237 148.19C412.237 151.995 409.151 155.08 405.346 155.08C401.541 155.08 398.456 151.995 398.456 148.19C398.456 144.385 401.541 141.299 405.346 141.299C409.151 141.299 412.237 144.385 412.237 148.19Z" fill="#FF8900"/>
</g>
<defs>
<clipPath id="clip0">
<rect width="512" height="512" fill="white"/>
</clipPath>
</defs>
</svg>
