<svg id="Capa_1" enable-background="new 0 0 511.997 511.997" height="512" viewBox="0 0 511.997 511.997" width="512" xmlns="http://www.w3.org/2000/svg"><g><path d="m451.748 149.919c9.28-9.27 0 0 52.749-7.351v266.958c0 25.95-21.04 46.99-46.99 46.99h-299.288c0-28.68 8.543-39.675 19.222-43.985" fill="#9bd069"/><path d="m196.358 141.938 194.203-86.46h66.94c25.96 0 47 21.04 47 46.99v40.1c0 14.15-5.74 26.96-15.01 36.23-9.28 9.28-22.09 15.01-36.24 15.01-12.58 0-22.78 10.2-22.78 22.79v35.74c0 5.51-2.23 10.5-5.85 14.11-3.67 3.67-8.76 5.91-14.37 5.84-10.92-.14-19.69 9.06-19.69 19.98v13.21c0 32.36-26.24 58.59-58.59 58.59h-81.309c-8.75 0-16.67 3.55-22.41 9.28-5.73 5.74-9.28 13.67-9.28 22.42 0 33.55-27.2 60.75-60.759 60.75h-103.72c-25.95 0-46.99-21.04-46.99-46.99v-133.252" fill="#ffe07d"/><path d="m390.561 55.477v25.94c0 17.26-13.99 31.25-31.26 31.25h-47.88c-8.64 0-16.45 3.5-22.11 9.16-5.65 5.65-9.15 13.47-9.15 22.1 0 17.27 13.99 31.26 31.26 31.26h18.4c6.8 0 12.95 2.75 17.4 7.21 4.46 4.45 7.21 10.6 7.21 17.4 0 13.59-11.02 24.61-24.61 24.61h-49c-8.26 0-15.75 3.35-21.16 8.77-5.42 5.41-8.77 12.9-8.77 21.16 0 16.53-13.39 29.93-29.92 29.93h-24.61c-8.82 0-16.8 3.57-22.58 9.35s-9.35 13.76-9.35 22.57c0 11.75-4.76 22.39-12.46 30.1-7.71 7.7-18.35 12.46-30.1 12.46-23.51 0-42.57-19.05-42.57-42.56v-7.98c0-17.63-14.29-31.93-31.92-31.93h-39.877v-173.81c0-25.95 21.04-46.99 46.99-46.99z" fill="#e4936b"/><path d="m457.504 464.02h-403.011c-30.048 0-54.493-24.446-54.493-54.494v-307.055c0-30.048 24.445-54.493 54.493-54.493h403.011c30.048 0 54.493 24.445 54.493 54.493v307.056c0 30.047-24.445 54.493-54.493 54.493zm-403.011-401.042c-21.776 0-39.493 17.716-39.493 39.493v307.056c0 21.776 17.717 39.493 39.493 39.493h403.011c21.776 0 39.493-17.717 39.493-39.493v-307.056c0-21.776-17.717-39.493-39.493-39.493z" fill="#f6f9f9"/><path d="m92.606 103.363h-27.934c-15.427 0-27.933 12.506-27.933 27.933 0 15.427 12.506 27.933 27.933 27.933 11.019 0 19.952 8.933 19.952 19.952v31.259c0 14.325 11.613 25.938 25.938 25.938 14.325 0 25.938-11.613 25.938-25.938 0-16.529 13.399-29.928 29.928-29.928h23.278c21.304 0 38.574-17.27 38.574-38.574 0-21.304-17.27-38.574-38.574-38.574h-97.1z" fill="#dd636e"/><path d="m444.432 425.261h-33.254c-12.121 0-21.948-9.826-21.948-21.948 0-12.121 9.826-21.948 21.948-21.948h33.254c12.121 0 21.948 9.826 21.948 21.948 0 12.122-9.827 21.948-21.948 21.948z" fill="#ffe07d"/></g></svg>