<svg id="Layer_1" enable-background="new 0 0 512 512" height="512" viewBox="0 0 512 512" width="512" xmlns="http://www.w3.org/2000/svg"><g><g clip-rule="evenodd" fill-rule="evenodd"><path d="m7.994 498.619h496.012c4.394 0 7.994-3.6 7.994-7.994v-169.372l-255.717-6.492-256.283 6.492v169.372c0 4.394 3.6 7.994 7.994 7.994z" fill="#d19a6e"/><path d="m479.005 498.619h25.001c4.394 0 7.994-3.6 7.994-7.994v-169.372h-25.002v169.372c0 4.394-3.6 7.994-7.993 7.994z" fill="#c38c66"/><path d="m512 321.253v-70.64c0-4.394-3.601-7.994-7.994-7.994h-135.044l-9.922-1.445-8.05 1.445h-189.951l-7.767-3.231-10.205 3.231h-135.073c-4.394 0-7.994 3.6-7.994 7.994v70.64z" fill="#b3e59f"/><path d="m512 321.253v-70.64c0-4.394-3.601-7.994-7.994-7.994h-25.001c4.393 0 7.993 3.601 7.993 7.994v70.64z" fill="#95d6a4"/></g><path d="m261.783 108.907c-2.297-3.43-1.361-8.079 2.068-10.375 3.431-2.296 8.079-1.389 10.375 2.069l94.735 142.018h-17.971zm-25.626-5.953c2.296-3.43 6.945-4.337 10.375-2.041s4.365 6.945 2.069 10.375l-87.563 131.331h-17.972zm12.36 12.303c0-4.139 3.345-7.512 7.483-7.512s7.512 3.373 7.512 7.512v226.491c0 4.139-3.373 7.512-7.512 7.512s-7.483-3.373-7.483-7.512z" fill="#61a2f9"/><path clip-rule="evenodd" d="m232.019 23.243h47.991c8.248 0 14.995 6.747 14.995 14.995v62.023c0 8.249-6.747 14.996-14.995 14.996h-47.991c-8.249 0-15.024-6.746-15.024-14.996v-62.023c0-8.248 6.746-14.995 15.024-14.995z" fill="#d57080" fill-rule="evenodd"/><path clip-rule="evenodd" d="m255.008 23.243h25.002c8.248 0 14.995 6.747 14.995 14.995v62.023c0 8.249-6.747 14.996-14.995 14.996h-25.002c8.249 0 14.995-6.746 14.995-14.996v-62.023c0-8.248-6.746-14.995-14.995-14.995z" fill="#cb5769" fill-rule="evenodd"/><path d="m245.059 76.733c-4.139 0-7.512-3.345-7.512-7.483s3.373-7.512 7.512-7.512h21.911c4.139 0 7.483 3.374 7.483 7.512 0 4.139-3.345 7.483-7.483 7.483z" fill="#ffe09f"/><path d="m0 280.122v-14.996h18.964c4.139 0 7.512 3.345 7.512 7.512 0 4.138-3.373 7.484-7.512 7.484zm450.912 20.012c-4.139 0-7.512-3.373-7.512-7.512s3.373-7.512 7.512-7.512h18.965c4.139 0 7.483 3.373 7.483 7.512s-3.345 7.512-7.483 7.512zm-82.177 0c-4.139 0-7.513-3.373-7.513-7.512s3.374-7.512 7.513-7.512h18.964c4.139 0 7.484 3.373 7.484 7.512s-3.346 7.512-7.484 7.512zm-82.177 0c-4.139 0-7.512-3.373-7.512-7.512s3.373-7.512 7.512-7.512h18.965c4.139 0 7.512 3.373 7.512 7.512s-3.373 7.512-7.512 7.512zm-82.178 0c-4.138 0-7.483-3.373-7.483-7.512s3.345-7.512 7.483-7.512h18.964c4.139 0 7.512 3.373 7.512 7.512s-3.373 7.512-7.512 7.512zm-82.177 0c-4.138 0-7.483-3.373-7.483-7.512s3.345-7.512 7.483-7.512h18.964c4.139 0 7.512 3.373 7.512 7.512s-3.373 7.512-7.512 7.512zm-82.177 0c-4.139 0-7.483-3.373-7.483-7.512s3.345-7.512 7.483-7.512h18.964c4.139 0 7.512 3.373 7.512 7.512s-3.374 7.512-7.512 7.512zm453.01-20.012c-4.139 0-7.483-3.346-7.483-7.484 0-4.167 3.345-7.512 7.483-7.512h18.964v14.996zm-82.178 0c-4.139 0-7.483-3.346-7.483-7.484 0-4.167 3.345-7.512 7.483-7.512h18.964c4.167 0 7.512 3.345 7.512 7.512 0 4.138-3.345 7.484-7.512 7.484zm-82.148 0c-4.167 0-7.512-3.346-7.512-7.484 0-4.167 3.345-7.512 7.512-7.512h18.964c4.138 0 7.483 3.345 7.483 7.512 0 4.138-3.346 7.484-7.483 7.484zm-164.355 0c-4.139 0-7.512-3.346-7.512-7.484 0-4.167 3.373-7.512 7.512-7.512h18.964c4.138 0 7.483 3.345 7.483 7.512 0 4.138-3.345 7.484-7.483 7.484zm-82.177 0c-4.139 0-7.512-3.346-7.512-7.484 0-4.167 3.373-7.512 7.512-7.512h18.964c4.139 0 7.512 3.345 7.512 7.512 0 4.138-3.374 7.484-7.512 7.484z" fill="#66b394"/><path d="m191.823 75.685c2.636 3.203 2.183 7.908-.993 10.544-3.203 2.636-7.909 2.211-10.573-.992-1.786-2.183-3.231-4.706-4.252-7.512-.964-2.693-1.503-5.556-1.503-8.476 0-2.919.539-5.783 1.503-8.476 1.02-2.806 2.466-5.357 4.252-7.512 2.665-3.203 7.37-3.628 10.573-.992 3.175 2.636 3.629 7.342.993 10.545-.766.907-1.361 1.928-1.758 2.977-.369 1.02-.567 2.183-.567 3.458 0 1.276.199 2.41.567 3.43.397 1.078.993 2.099 1.758 3.006zm139.92 9.553c-2.637 3.203-7.37 3.628-10.545.992-3.203-2.636-3.629-7.341-.992-10.544.765-.907 1.36-1.928 1.729-3.005.369-1.021.567-2.154.567-3.43 0-1.275-.198-2.438-.567-3.458-.368-1.049-.964-2.07-1.729-2.977-2.637-3.203-2.211-7.909.992-10.545 3.175-2.636 7.908-2.211 10.545.992 1.813 2.154 3.26 4.706 4.252 7.512.992 2.693 1.502 5.557 1.502 8.476 0 2.92-.51 5.783-1.502 8.476-.992 2.805-2.438 5.328-4.252 7.511zm33.392-59.585c-2.636-3.203-2.211-7.909.992-10.545 3.175-2.636 7.909-2.211 10.545.992 6.039 7.314 10.886 15.732 14.202 24.917 3.203 8.872 4.933 18.368 4.933 28.233 0 9.836-1.73 19.361-4.933 28.233-3.316 9.185-8.163 17.604-14.202 24.918-2.636 3.175-7.37 3.628-10.545.992-3.203-2.637-3.628-7.37-.992-10.545 5.018-6.066 8.985-12.955 11.679-20.41 2.58-7.2 3.997-14.995 3.997-23.188s-1.417-16.016-3.997-23.188c-2.694-7.455-6.662-14.343-11.679-20.409zm-22.734 18.793c-2.637-3.203-2.184-7.908.992-10.545 3.203-2.636 7.908-2.211 10.545.992 3.911 4.706 7.058 10.148 9.184 16.101 2.069 5.754 3.203 11.905 3.203 18.255s-1.134 12.473-3.203 18.227c-2.126 5.981-5.272 11.423-9.184 16.129-2.637 3.204-7.342 3.629-10.545.992-3.176-2.636-3.629-7.342-.992-10.545 2.862-3.458 5.158-7.37 6.661-11.594 1.474-4.082 2.268-8.532 2.268-13.209 0-4.706-.794-9.128-2.268-13.21-1.502-4.223-3.798-8.134-6.661-11.593zm-207.045-28.347c2.636-3.203 7.342-3.628 10.545-.992 3.175 2.636 3.628 7.342.992 10.545-5.018 6.066-9.014 12.954-11.707 20.41-2.58 7.171-3.969 14.995-3.969 23.188s1.389 15.988 3.969 23.188c2.693 7.455 6.689 14.344 11.707 20.41 2.636 3.175 2.183 7.908-.992 10.545-3.203 2.636-7.909 2.183-10.545-.992-6.066-7.313-10.913-15.732-14.23-24.918-3.175-8.872-4.932-18.396-4.932-28.233 0-9.865 1.757-19.361 4.932-28.233 3.317-9.185 8.164-17.604 14.23-24.918zm22.706 18.794c2.636-3.203 7.37-3.628 10.545-.992 3.175 2.637 3.628 7.342.992 10.545-2.863 3.458-5.131 7.37-6.662 11.594-1.445 4.082-2.239 8.504-2.239 13.21 0 4.677.794 9.127 2.239 13.209 1.531 4.224 3.799 8.136 6.662 11.594 2.636 3.203 2.183 7.909-.992 10.545-3.175 2.637-7.909 2.211-10.545-.992-3.912-4.706-7.03-10.148-9.184-16.129-2.07-5.754-3.204-11.878-3.204-18.227 0-6.35 1.134-12.501 3.204-18.255 2.154-5.953 5.272-11.396 9.184-16.102z" fill="#d3effb"/><path clip-rule="evenodd" d="m32.826 378.825 16.47-10.97c4.28-2.863 9.071-2.863 13.351 0l16.498 10.97c4.762 3.175 6.236 7.54 5.556 12.387l-7.795 55.021c-.652 4.593-3.827 7.938-9.156 7.938h-23.557c-5.074 0-8.334-2.098-9.156-7.938l-7.767-55.021c-.766-5.301 1.219-9.524 5.556-12.387zm400.058 62.25 16.47 10.97c4.28 2.835 9.07 2.835 13.351 0l16.499-10.97c4.762-3.203 6.236-7.569 5.556-12.416l-7.795-55.021c-.652-4.564-3.855-7.937-9.157-7.937h-23.556c-5.074 0-8.334 2.098-9.156 7.937l-7.767 55.021c-.766 5.329 1.218 9.524 5.555 12.416zm-160.046 0 16.498 10.97c4.279 2.835 9.07 2.835 13.352 0l16.47-10.97c4.79-3.203 6.265-7.569 5.556-12.416l-7.767-55.021c-.652-4.564-3.855-7.937-9.156-7.937h-23.557c-5.074 0-8.334 2.098-9.156 7.937l-7.795 55.021c-.738 5.329 1.246 9.524 5.555 12.416zm-160.017 0 16.498 10.97c4.28 2.835 9.071 2.835 13.351 0l16.47-10.97c4.79-3.203 6.236-7.569 5.556-12.416l-7.767-55.021c-.652-4.564-3.855-7.937-9.156-7.937h-23.585c-5.074 0-8.305 2.098-9.127 7.937l-7.795 55.021c-.739 5.329 1.246 9.524 5.555 12.416zm240.039-62.25 16.47-10.97c4.309-2.863 9.071-2.863 13.381 0l16.469 10.97c4.791 3.175 6.236 7.54 5.557 12.387l-7.767 55.021c-.652 4.564-3.855 7.938-9.156 7.938h-23.585c-5.074 0-8.306-2.098-9.127-7.938l-7.796-55.021c-.739-5.301 1.217-9.524 5.554-12.387zm-160.016 0 16.469-10.97c4.309-2.863 9.071-2.863 13.379 0l16.47 10.97c4.763 3.175 6.236 7.54 5.556 12.387l-7.795 55.021c-.652 4.564-3.827 7.938-9.128 7.938h-23.585c-5.074 0-8.306-2.098-9.156-7.938l-7.768-55.021c-.764-5.301 1.22-9.524 5.558-12.387z" fill="#966a5b" fill-rule="evenodd"/><path clip-rule="evenodd" d="m43.484 371.71 5.811-3.855c4.28-2.863 9.071-2.863 13.351 0l16.498 10.97c4.762 3.175 6.236 7.54 5.556 12.387l-7.795 55.021c-.652 4.593-3.827 7.938-9.156 7.938h-23.556c-.255 0-.539 0-.794-.028 4.933-.255 7.881-3.515 8.504-7.909l7.795-55.021c.68-4.847-.793-9.212-5.556-12.387zm400.058 76.451 5.811 3.884c4.28 2.835 9.07 2.835 13.351 0l16.499-10.97c4.762-3.203 6.236-7.569 5.556-12.416l-7.795-55.021c-.652-4.564-3.855-7.937-9.157-7.937h-23.556c-.284 0-.539 0-.794.028 4.933.255 7.881 3.515 8.504 7.909l7.795 55.021c.681 4.847-.793 9.213-5.556 12.416zm-160.046 0 5.84 3.884c4.279 2.835 9.07 2.835 13.352 0l16.47-10.97c4.79-3.203 6.265-7.569 5.556-12.416l-7.767-55.021c-.652-4.564-3.855-7.937-9.156-7.937h-23.557c-.284 0-.539 0-.794.028 4.933.255 7.88 3.515 8.504 7.909l7.795 55.021c.682 4.847-.793 9.213-5.556 12.416zm-160.017 0 5.839 3.884c4.28 2.835 9.071 2.835 13.351 0l16.47-10.97c4.79-3.203 6.236-7.569 5.556-12.416l-7.767-55.021c-.652-4.564-3.855-7.937-9.156-7.937h-23.585c-.255 0-.51 0-.765.028 4.904.255 7.88 3.515 8.504 7.909l7.767 55.021c.709 4.847-.765 9.213-5.556 12.416zm240.04-76.451 5.812-3.855c4.309-2.863 9.071-2.863 13.381 0l16.469 10.97c4.791 3.175 6.236 7.54 5.557 12.387l-7.767 55.021c-.652 4.564-3.855 7.938-9.156 7.938h-23.585c-.255 0-.51 0-.766-.028 4.904-.255 7.881-3.515 8.504-7.909l7.768-55.021c.68-4.847-.766-9.212-5.556-12.387zm-160.017 0 5.811-3.855c4.309-2.863 9.071-2.863 13.379 0l16.47 10.97c4.763 3.175 6.236 7.54 5.556 12.387l-7.795 55.021c-.652 4.564-3.827 7.938-9.128 7.938h-23.585c-.255 0-.51 0-.765-.028 4.904-.255 7.852-3.515 8.476-7.909l7.795-55.021c.68-4.847-.766-9.212-5.556-12.387z" fill="#785353" fill-rule="evenodd"/></g></svg>