<svg id="Layer_1" enable-background="new 0 0 512 512" height="512" viewBox="0 0 512 512" width="512" xmlns="http://www.w3.org/2000/svg"><g><path d="m326.856 94.523-21.212-21.213-49.644 49.644-49.644-49.644-21.212 21.213 49.643 49.644-49.643 49.643 21.212 21.213 49.644-49.643 49.644 49.643 21.212-21.213-49.643-49.643z" fill="#5e868c"/><path d="m305.644 215.023 21.212-21.213-49.643-49.643 49.643-49.644-21.212-21.213-49.644 49.644v42.426z" fill="#4a6a6f"/><g><path d="m316.25 217.084h-120.5c-8.284 0-15-7.281-15-16.263v-130.642c0-8.981 6.716-16.263 15-16.263h120.5c8.284 0 15 7.281 15 16.263v130.642c0 8.982-6.716 16.263-15 16.263zm-105.5-32.525h90.5v-98.118h-90.5z" fill="#384949"/></g><path d="m316.25 53.916h-60.25v32.525h45.25v98.117h-45.25v32.525h60.25c8.284 0 15-7.281 15-16.263v-130.641c0-8.982-6.716-16.263-15-16.263z" fill="#283939"/><g><path d="m346.375 90.25h-180.75c-5.199 0-10.027-2.692-12.76-7.114s-2.981-9.944-.657-14.594l30.125-60.25c2.542-5.082 7.735-8.292 13.417-8.292h120.5c5.682 0 10.875 3.21 13.417 8.292l30.125 60.25c2.325 4.649 2.076 10.172-.657 14.594s-7.561 7.114-12.76 7.114z" fill="#4a6a6f"/></g><path d="m329.667 8.292c-2.542-5.082-7.735-8.292-13.417-8.292h-60.25v90.25h90.375c5.199 0 10.027-2.692 12.76-7.114s2.981-9.944.657-14.594z" fill="#384949"/><g><path d="m361.375 273.522h-210.75v-53.467c0-21.681 17.639-39.32 39.32-39.32h132.11c21.681 0 39.32 17.639 39.32 39.32z" fill="#4a6a6f"/></g><path d="m322.055 180.735h-66.055v92.787h105.375v-53.467c0-21.681-17.639-39.32-39.32-39.32z" fill="#384949"/><g><path d="m497 512h-45.813l-195.187-81.338-195.187 81.338h-45.813c-8.284 0-15-6.716-15-15 0-68.38 26.629-132.667 74.98-181.02 48.353-48.351 112.64-74.98 181.02-74.98s132.667 26.629 181.02 74.98c48.351 48.353 74.98 112.64 74.98 181.02 0 8.284-6.716 15-15 15z" fill="#87363e"/></g><path d="m256 241v81.667l195.187 189.333h45.813c8.284 0 15-6.716 15-15 0-68.38-26.629-132.667-74.98-181.02-48.352-48.351-112.64-74.98-181.02-74.98z" fill="#6d1d40"/><g><path d="m451.187 512h-60.499l-134.688-90.25-134.688 90.25h-60.499c-8.591-114.682 82.29-210.75 195.187-210.75s203.778 96.068 195.187 210.75z" fill="#ff7b4a"/></g><path d="m256 301.25v210.75h195.187c8.591-114.681-82.29-210.75-195.187-210.75z" fill="#ff425b"/><g><path d="m390.688 512h-60.897l-73.791-39-73.791 39h-60.897c-8.795-81.405 55.03-150.5 134.688-150.5s143.483 69.095 134.688 150.5z" fill="#fea72b"/></g><path d="m256 361.5v150.5h134.688c8.795-81.405-55.029-150.5-134.688-150.5z" fill="#ff7b4a"/><g><path d="m329.791 512h-147.582c-9.334-48.038 27.392-90.25 73.791-90.25s83.125 42.212 73.791 90.25z" fill="#ffd15e"/></g><path d="m256 421.75v90.25h73.791c9.334-48.038-27.391-90.25-73.791-90.25z" fill="#fea72b"/><path d="m210.875 180.712v68.253l13.125 8.285-13.125 27.356v38.192l6.792 13.035-6.792 22.607v38.192l2.483 34.03 29.226 58.45c2.541 5.082 7.735 8.292 13.417 8.292s10.875-3.21 13.417-8.292l30.125-60.25c1.042-2.083 1.583-4.379 1.583-6.708v-48.439l-7.697-15.275 7.697-20.366v-38.192l-9.625-9.632 9.625-26.01v-38.192l-11.626-9.298 11.625-26.343v-9.666z" fill="#384949"/><path d="m256 497.404c5.682 0 10.875-3.21 13.417-8.292l30.125-60.25c1.042-2.083 1.583-4.379 1.583-6.708v-48.439l-7.697-15.275 7.697-20.366v-38.192l-9.625-9.632 9.625-26.01v-38.192l-11.625-9.298 11.625-26.343v-9.666l-45.125-.015z" fill="#283939"/><g fill="#5e868c"><path d="m210.875 284.606 90.25-58.558v-35.641l-90.25 58.558z"/><path d="m210.875 358.44 90.25-58.558v-35.642l-90.25 58.559z"/><path d="m301.125 338.074-90.25 58.558v25.522c0 2.329.542 4.625 1.583 6.708l.9 1.8 87.767-56.947z"/></g><path d="m256 255.327 45.125-29.279v-35.641l-45.125 29.279z" fill="#4a6a6f"/><path d="m256 329.161 45.125-29.279v-35.642l-45.125 29.279z" fill="#4a6a6f"/><path d="m256 402.994 45.125-29.279v-35.641l-45.125 29.279z" fill="#4a6a6f"/></g></svg>