<svg id="Layer_1" enable-background="new 0 0 512 512" height="512" viewBox="0 0 512 512" width="512" xmlns="http://www.w3.org/2000/svg"><g><g clip-rule="evenodd" fill-rule="evenodd"><path d="m226.027 238.278c-4.961-1.332-8.447.624-9.78 5.67l-15.194 56.666c-9.213 34.328 11.368 69.961 45.696 79.146 34.357 9.213 69.961-11.367 79.174-45.695l15.165-56.667c1.19-4.365-.425-8.391-5.641-9.808z" fill="#dddaec"/><path d="m251.313 380.808c32.882 6.293 65.822-13.918 74.609-46.744l15.165-56.667c1.19-4.365-.425-8.391-5.641-9.808l-19.956-5.329c2.154 2.069 2.665 5.103 1.871 8.334l-15.194 60.352c-6.633 26.42-27.07 45.157-50.854 49.862z" fill="#beb9dd"/><path d="m320.31 38.091-68.855 256.968c-2.467 9.241 3.062 18.822 12.302 21.288 9.213 2.495 18.795-3.062 21.289-12.273l68.855-256.968z" fill="#e2a975"/><path d="m377.571 17.454-62.959-16.866c-9.241-2.467-18.794 3.061-21.289 12.302-2.466 9.213 3.062 18.794 12.303 21.261l62.959 16.894c9.241 2.467 18.823-3.061 21.289-12.302 2.467-9.242-3.061-18.823-12.303-21.289z" fill="#61a2f9"/><path d="m377.571 17.454-21.005-5.613c7.597 3.742 11.877 12.558 9.666 21.005-1.984 7.683-8.674 12.842-16.129 13.239l18.482 4.96c9.241 2.467 18.823-3.061 21.289-12.302 2.467-9.242-3.061-18.823-12.303-21.289z" fill="#5490f9"/><path d="m231.385 331.541 110.214 110.214-70.274 70.245h-36.058l-79.287-4.989-74.892 4.989h-73.249c-3.884 0-5.585-2.41-2.354-5.642l174.818-174.817c14.06-14.06 37.021-14.06 51.082 0z" fill="#d57080"/><path d="m231.385 331.541 174.704 174.704h-25.002l-174.704-174.704c-3.8-3.798-8.278-6.576-13.04-8.334 12.813-4.677 27.808-1.9 38.042 8.334z" fill="#d57080"/><path d="m406.485 406.661 99.697 99.697c3.799 3.771 1.843 5.642-2.324 5.642h-232.533l105.367-105.339c8.194-8.221 21.601-8.192 29.793 0z" fill="#407093"/><path d="m406.485 406.661 99.697 99.697c3.799 3.771 1.843 5.642-2.324 5.642h-25.002c4.166 0 6.122-1.871 2.352-5.642l-99.725-99.697c-.736-.766-1.56-1.445-2.382-2.069 8.222-6.067 19.957-5.386 27.384 2.069z" fill="#365e7d"/><path d="m167.746 444.476 67.521 67.524h-154.179l67.551-67.523c5.244-5.273 13.834-5.273 19.107-.001z" fill="#ffe09f"/><path d="m167.746 444.476 67.521 67.524h-25.001l-64.575-64.575 2.947-2.948c5.245-5.273 13.835-5.273 19.108-.001z" fill="#f6d190"/></g><path d="m377.458 456.524c-4.139 0-7.513-3.346-7.513-7.513 0-4.138 3.374-7.483 7.513-7.483h28.262c4.139 0 7.512 3.346 7.512 7.483 0 4.167-3.373 7.513-7.512 7.513zm-31.635 29.991c-4.14 0-7.513-3.345-7.513-7.483 0-4.139 3.373-7.513 7.513-7.513h28.261c4.139 0 7.513 3.374 7.513 7.513s-3.374 7.483-7.513 7.483zm63.27 0c-4.138 0-7.512-3.345-7.512-7.483 0-4.139 3.374-7.513 7.512-7.513h28.263c4.139 0 7.512 3.374 7.512 7.513s-3.373 7.483-7.512 7.483z" fill="#2b4d66"/><path d="m148.469 492.326c-4.139 0-7.483-3.345-7.483-7.483 0-4.139 3.345-7.512 7.483-7.512h19.419c4.139 0 7.512 3.373 7.512 7.512s-3.373 7.483-7.512 7.483z" fill="#e2a975"/><path d="m270.419 457.402c-4.139 0-7.512-3.373-7.512-7.512s3.373-7.483 7.512-7.483h9.695c4.139 0 7.512 3.345 7.512 7.483 0 4.139-3.373 7.512-7.512 7.512zm-190.21 15.988c-4.139 0-7.512-3.345-7.512-7.483 0-4.139 3.373-7.513 7.512-7.513h9.694c4.139 0 7.513 3.374 7.513 7.513s-3.374 7.483-7.513 7.483zm54.002-48.756c-4.14 0-7.513-3.346-7.513-7.484 0-4.139 3.373-7.512 7.513-7.512h9.694c4.139 0 7.512 3.373 7.512 7.512s-3.373 7.484-7.512 7.484zm46.234-25.315c-4.139 0-7.483-3.345-7.483-7.483 0-4.139 3.345-7.513 7.483-7.513h9.723c4.139 0 7.483 3.374 7.483 7.513s-3.345 7.483-7.483 7.483zm22.593-31.806c-4.14 0-7.513-3.345-7.513-7.483 0-4.139 3.373-7.513 7.513-7.513h9.694c4.167 0 7.512 3.374 7.512 7.513s-3.345 7.483-7.512 7.483zm35.83 45.64c-4.139 0-7.483-3.374-7.483-7.513s3.345-7.483 7.483-7.483h9.724c4.139 0 7.483 3.345 7.483 7.483 0 4.139-3.345 7.513-7.483 7.513zm-31.578 28.488c-4.139 0-7.513-3.345-7.513-7.483s3.374-7.512 7.513-7.512h9.694c4.167 0 7.512 3.373 7.512 7.512s-3.345 7.483-7.512 7.483zm36.511 46.376c-4.167 0-7.513-3.345-7.513-7.483 0-4.139 3.346-7.512 7.513-7.512h9.695c4.138 0 7.512 3.373 7.512 7.512s-3.374 7.483-7.512 7.483z" fill="#cb5769"/></g></svg>