<svg id="Capa_1" enable-background="new 0 0 512 512" height="512" viewBox="0 0 512 512" width="512" xmlns="http://www.w3.org/2000/svg"><g><path d="m301 0h-90v113.5l30 24.999-30 35.001v60l30.405 25.338-28.605 33.761c6.819 45.463 37.806 67.794 43.2 74.7 4.688-6.501 45-35.376 45-93.6v-25.199l-29.797-5.372 29.797-54.628v-60l-30-5.001 30-54.999z" fill="#ffe6b3"/><path d="m301 273.699v-25.199l-29.797-5.372 29.797-54.628v-60l-30-5.001 30-54.999v-68.5h-45v367.299c4.688-6.5 45-35.376 45-93.6z" fill="#ffca80"/><g><path d="m512 361v-30c0-16.569-13.431-30-30-30h-121c-16.569 0-30 13.431-30 30v15c0 29.7-50.4 61.199-75 73.5-24.6-12.301-75-43.801-75-73.5v-15c0-16.569-13.431-30-30-30h-120c-16.569 0-31 13.431-31 30v30l91 15-91 15v121h512v-121l-91-15z" fill="#fc6"/></g><path d="m512 512v-121l-91-15 91-15v-30c0-16.569-13.431-30-30-30h-121c-16.569 0-30 13.431-30 30v15c0 29.7-50.4 61.199-75 73.5v92.5z" fill="#f09040"/><g><g><path d="m151 151h-120c-16.569 0-31-13.431-31-30v-60h181v60c0 16.569-13.431 30-30 30z" fill="#97de3d"/></g></g><g><path d="m482 151h-121c-16.569 0-30-13.431-30-30v-60h181v60c0 16.569-13.431 30-30 30z" fill="#59c36a"/></g><g id="Geology_Drilling_2_"><g><path d="m181 331h-181v-210h181z" fill="#ab633d"/></g><g><g><g><g><path d="m512 331h-181v-210h181z" fill="#824c19"/></g></g></g></g><g><path d="m61 181h30v30h-30z" fill="#cd7f57"/></g><g><path d="m91 241h30v30h-30z" fill="#cd7f57"/></g><g><path d="m391 241h30v30h-30z" fill="#cd7f57"/></g><g><path d="m421 181h30v30h-30z" fill="#cd7f57"/></g><g><path d="m0 361h121v30h-121z" fill="#ffdc91"/></g><g><path d="m61 421h90v30h-90z" fill="#ffdc91"/></g><g><path d="m361 421h90v30h-90z" fill="#fac063"/></g><g><path d="m391 361h121v30h-121z" fill="#fac063"/></g></g><g><g><g><path d="m301 188.5v60l-88.2 44.099c-1.199-6.299-1.8-12.599-1.8-18.9v-40.199z" fill="#fff7cc"/></g><g><path d="m301 68.5v60l-90 45v-60z" fill="#fff7cc"/></g></g></g><g fill="#ffe6b3"><path d="m256 271 45-22.5v-60l-45 22.5z"/><path d="m256 151 45-22.5v-60l-45 22.5z"/></g></g></svg>