<svg id="Layer_1" enable-background="new 0 0 512 512" height="512" viewBox="0 0 512 512" width="512" xmlns="http://www.w3.org/2000/svg"><g><path d="m483.19 284.9c0 104.55-8.63 210.47-8.72 211.53-.3 3.66-3.2 6.56-6.86 6.86-.36.03-12.59 1.03-32.64 2.34-39.55 2.57-109.56 6.37-178.97 6.37-42.57 0-89.96-1.38-140.86-4.11-1.38-.07-2.72-.53-3.86-1.32-42.4-29.32-68.04-63.87-77.1-77.36-.76-1.12-1.19-2.43-1.26-3.78-2.73-50.95-4.11-98.23-4.11-140.53 0-38.25 1.16-76.68 2.63-110.09l224.56-58.5 185.04 48.22 39.52 10.3c1.47 33.41 2.63 71.83 2.63 110.07z" fill="#dcf8ff"/><path d="m483.19 284.9c0 104.55-8.63 210.47-8.72 211.53-.3 3.66-3.2 6.56-6.86 6.86-.36.03-12.59 1.03-32.64 2.34 11.64-129.21 9.78-256.2 6.07-341.1l39.52 10.3c1.47 33.41 2.63 71.83 2.63 110.07z" fill="#d2e1f9"/><path d="m480.56 174.83c-4.67-.35-18.75-1.36-39.2-2.57-43.02-2.56-114.25-6-185.48-6-104.53 0-209.07 7.41-224.44 8.55 2.55-57.93 6.04-100.78 6.1-101.45.3-3.65 3.2-6.55 6.86-6.85 1.06-.09 107.01-8.72 211.6-8.72 69.27 0 139.15 3.79 178.74 6.37 20.19 1.31 32.51 2.32 32.87 2.35 3.66.3 6.56 3.2 6.86 6.85.06.67 3.55 43.53 6.09 101.47z" fill="#ff5f85"/><g fill="#58768c"><path d="m168.53 59.51c-.25 2.88-.61 5.85-1.08 8.93-.62 4.1-4.45 6.92-8.54 6.3s-6.91-4.45-6.29-8.54c.32-2.09.58-4.13.79-6.1 1.86-17.47-.42-30.43-6.65-37.69-4.24-4.92-10.48-7.41-18.56-7.41-5.76 0-10.4 1.86-13.77 5.54-6.14 6.69-8.56 19.72-7.02 37.69 1.8 20.88 7.93 34.99 18.22 41.94 11.94 8.06 26.28 3.81 26.43 3.77 3.94-1.21 8.14.99 9.37 4.93s-.93 8.12-4.87 9.38c-.43.14-6.01 1.85-13.77 1.85-7.33 0-16.6-1.53-25.36-7.37-14.34-9.57-22.74-27.48-24.96-53.21-1.94-22.59 1.73-39.11 10.91-49.12 6.24-6.8 14.83-10.4 24.82-10.4 15.76 0 24.97 6.87 29.93 12.63 8.81 10.24 12.3 25.98 10.4 46.88z"/><path d="m419.39 63.19c-.27 2.64-.62 5.35-1.05 8.14-.64 4.09-4.47 6.9-8.56 6.26-4.1-.63-6.9-4.46-6.27-8.55.36-2.3.65-4.54.88-6.71 1.97-18.29-.42-31.9-7.02-39.6-5.76-6.73-13.85-7.73-18.17-7.73-5.76 0-10.4 1.86-13.77 5.54-6.14 6.69-8.56 19.72-7.02 37.69 1.8 20.88 7.93 34.99 18.22 41.94 11.94 8.06 26.28 3.81 26.43 3.77 3.94-1.21 8.14.99 9.37 4.93s-.93 8.12-4.87 9.38c-.43.14-6.01 1.85-13.77 1.85-7.33 0-16.6-1.53-25.36-7.37-14.34-9.57-22.74-27.48-24.96-53.21-1.94-22.59 1.73-39.11 10.91-49.12 6.24-6.8 14.83-10.4 24.82-10.4 6.89 0 19.89 1.68 29.56 12.96 9.36 10.93 12.92 27.8 10.63 50.23z"/><path d="m294.14 58.14c-.2 2.71-.51 5.52-.92 8.41-.57 4.1-4.36 6.96-8.46 6.39s-6.96-4.36-6.39-8.46c.31-2.25.56-4.43.75-6.55 1.45-16.45-.92-28.68-6.94-35.61-4.23-4.86-10.45-7.32-18.48-7.32-5.76 0-10.4 1.86-13.77 5.54-6.14 6.69-8.56 19.72-7.02 37.69 1.8 20.88 7.93 34.99 18.22 41.94 11.94 8.06 26.28 3.81 26.43 3.77 3.94-1.21 8.14.99 9.37 4.93s-.93 8.12-4.87 9.38c-.43.14-6.01 1.85-13.77 1.85-7.33 0-16.6-1.53-25.36-7.37-14.34-9.57-22.74-27.48-24.96-53.21-1.94-22.59 1.73-39.11 10.91-49.12 6.24-6.8 14.83-10.4 24.82-10.4 15.65 0 24.84 6.79 29.79 12.48 8.72 10.01 12.29 25.35 10.65 45.66z"/></g><g fill="#ff5f85"><path d="m419.39 63.19c-.27 2.64-.62 5.35-1.05 8.14-.64 4.09-4.47 6.9-8.56 6.26-4.1-.63-6.9-4.46-6.27-8.55.36-2.3.65-4.54.88-6.71 5.26.29 10.27.58 15 .86z"/><path d="m294.14 58.14c-.2 2.71-.51 5.52-.92 8.41-.57 4.1-4.36 6.96-8.46 6.39s-6.96-4.36-6.39-8.46c.31-2.25.56-4.43.75-6.55 5.03.05 10.04.13 15.02.21z"/><path d="m168.53 59.51c-.25 2.88-.61 5.85-1.08 8.93-.62 4.1-4.45 6.92-8.54 6.3s-6.91-4.45-6.29-8.54c.32-2.09.58-4.13.79-6.1 4.95-.21 9.99-.41 15.12-.59z"/></g><g><path d="m168.093 351.941c-22.861 8.91-43.578 7.481-56.859 4.75 6.452-4.359 14.626-10.453 23.858-18.61 31.085-27.466 46.761-65.596 37.273-90.662-3.47-9.167-13.654-24.546-42.879-24.546-15.002 0-26.44 4.919-33.994 14.62-15.47 19.866-7.501 52.33-7.155 53.702 1.014 4.011 5.083 6.438 9.096 5.431s6.451-5.08 5.45-9.095c-1.847-7.409-4.645-29.189 4.465-40.85 4.631-5.927 11.873-8.809 22.138-8.809 15.413 0 25.12 4.999 28.851 14.856 7.125 18.825-7.448 51.378-33.176 74.112-20.462 18.08-35.32 25.237-35.454 25.301-2.628 1.236-4.306 3.877-4.309 6.781s1.672 5.548 4.298 6.788c1.032.487 17.655 8.143 41.895 8.142 12.356 0 26.697-1.991 41.95-7.936 3.859-1.504 5.769-5.852 4.265-9.711-1.506-3.858-5.85-5.77-9.713-4.264z" fill="#ff5f85"/><path d="m373.984 351.941c-22.861 8.91-43.578 7.481-56.859 4.75 6.452-4.359 14.626-10.453 23.858-18.609 31.086-27.467 46.762-65.596 37.274-90.663-3.47-9.167-13.655-24.546-42.88-24.546-15.002 0-26.44 4.919-33.994 14.62-15.47 19.866-7.501 52.33-7.155 53.702 1.014 4.011 5.082 6.438 9.096 5.431 4.013-1.007 6.451-5.08 5.45-9.095-1.847-7.409-4.645-29.189 4.465-40.85 4.631-5.927 11.873-8.809 22.138-8.809 15.413 0 25.12 4.999 28.851 14.856 7.125 18.824-7.448 51.378-33.177 74.111-20.462 18.08-35.32 25.237-35.454 25.301-2.628 1.236-4.306 3.877-4.309 6.781s1.672 5.548 4.298 6.788c1.032.487 17.655 8.143 41.895 8.142 12.356 0 26.697-1.991 41.95-7.936 3.859-1.504 5.769-5.852 4.265-9.711-1.504-3.857-5.849-5.769-9.712-4.263z" fill="#77e0ab"/><path d="m233.143 222.874c-13.633 0-28.7 1.993-37.084 16.771-6.091 10.736-8.464 27.196-8.464 58.704 0 31.509 2.373 47.968 8.464 58.705 8.384 14.778 23.451 16.771 37.084 16.771s28.7-1.993 37.083-16.771c6.091-10.737 8.464-27.196 8.464-58.705 0-31.508-2.373-47.968-8.464-58.704-8.383-14.779-23.45-16.771-37.083-16.771zm0 135.949c-22.699 0-30.548-2.929-30.548-60.475 0-57.545 7.85-60.475 30.548-60.475s30.548 2.929 30.548 60.475-7.85 60.475-30.548 60.475z" fill="#ff5f85"/><path d="m420.114 229.741c-.349-4.127-3.971-7.184-8.105-6.84-4.127.349-7.19 3.978-6.841 8.105.055.65 5.428 65.784-.004 134.729-.325 4.129 2.759 7.74 6.888 8.066.2.016.399.023.597.023 3.875 0 7.159-2.983 7.469-6.912 5.531-70.21.052-136.51-.004-137.171z" fill="#77e0ab"/></g><path d="m115.14 507.89c-1.38-.07-2.72-.53-3.86-1.32-42.4-29.32-68.04-63.87-77.1-77.36-.76-1.12-1.19-2.43-1.26-3.78 0 0 38.77-3.21 74.46-2.8 4.35.05 7.88 3.52 8.03 7.87.48 14.12 1.22 45.59-.27 77.39z" fill="#d2e1f9"/><path d="m480.56 174.83c-4.67-.35-18.75-1.36-39.2-2.57-2.36-57.64-5.68-97.49-6.62-108.1 20.19 1.31 32.51 2.32 32.87 2.35 3.66.3 6.56 3.2 6.86 6.85.06.67 3.55 43.53 6.09 101.47z" fill="#b2527e"/></g></svg>