<svg xmlns="http://www.w3.org/2000/svg" viewBox="0 0 218.86 218.86"><g id="Livello_2" data-name="Livello 2"><g id="Layer_1" data-name="Layer 1"><path d="M206.29,131.37c.05.26.08.29.19.35.28-2.23.39-3.48.39-3.49.11-1.29-.08-1.41-.23-1.52s-.15,0-.25.21c.06-.63-.09-.71-.19-.77a1.17,1.17,0,0,0,0-.71c-.12-.2-.39-.06-.52-.22-.31-.39.12-.71.09-1.08l-.07,0a.82.82,0,0,0,.06-.81h-.09c-.09.1-.12.27-.29.3.19-.72,0-1-.08-1.13s-.18,0-.37.22c-.12-.44-.25-.62-.5-.64,0-.43-.15-.46-.27-.51s-.09.21-.17.29c-.29-.75-.29-.75-.36-.81l-.07.05c-.29-.14-.13-.47-.29-.67s-.49-.24-.68-.46a1.18,1.18,0,0,1-.13-.18,3.5,3.5,0,0,1-.5-1.1c-.24-.77-1-.49-1.38-.12-.22-.13-.3-.44-.62-.44-.4.28.08,1.45.08,1.46.31.74,1,1.17,1.36,1.9.07.16.26.2.33.36s0,.41.11.59.09.09.13.08c.64,0,.81,1.13.83,2.13,0,.45.5.57.65.93a3.58,3.58,0,0,1,.11.35,23.61,23.61,0,0,1,.42,2.35c.16.89.32,1.15.54,1.33s.17.17.19.47a.94.94,0,0,0,.05.28,6.33,6.33,0,0,0,.42.64c.43.26.37.82.67,1.16h.1l0-.62.29.22C206.24,131.58,206.27,131.47,206.29,131.37Z" style="fill:#fff"/><path d="M96.78,10.16c.8-.17,1.57-.45,2.39-.56,0,0-5.47,1.89-5.53,1.9.73-.33.73-.33.94-.65-2.13.67-3.93,2.06-6.07,2.7h0l0-.06.19-.14c-2.91,1.15-2.91,1.15-3,1.23l-.16.09-.07,0a3.82,3.82,0,0,1-.46.21l-.08,0h0l-.14-.06,0-.23s-.7.25-1.72.72h0l0,0h-.15l-.12.06-.12.05-.09,0a48.07,48.07,0,0,0-9.32,5.51c.54-.15,1-.57,1.59-.6-1.19.81-2.57,1.29-3.69,2.2,0,0-4.45,4.1-4.61,4.55l.21.07-.35.3,0,.24a3.24,3.24,0,0,1,.74-.06l0,.22a12.42,12.42,0,0,0-1.75,1.9.79.79,0,0,1,.48,0l-.12.19.18.15c4.69-2.42,8.06-6.69,12.78-9,1,.5,1.4-1,2.32-.78,1.32-.76,1.32-.76,1.62-.68-.43.36-.43.36-.53.58,3-1.31,5.66-3.35,8.74-4.55-.29.26-.63.48-.92.74l0,.24c7.21-2,7.72-3.34,7.75-3.59l-.21.06-.2-.13c-.45.13-.86.36-1.31.47.47-.34,1-.42,1.54-.72l-.16-.16,4.21-2c-2.45,1.54-2.56,1.68-3.3,2.54,1.6-.74,2.94-1.91,4.49-2.74.08-.1.08-.1,1-.65l-.44.14a7.52,7.52,0,0,0,1.22-.62c.83-.37.83-.37,3.74-1.46l.2-.07a12.79,12.79,0,0,0-1.61.69l-.11.05h0l1.85-.76h0l.91-.37A98.63,98.63,0,0,0,97.81,9.79C97.47,9.92,97.12,10,96.78,10.16Z" style="fill:#fff"/><path d="M98.68,7.58h0l2.11-.1c.42,0,.84,0,1.26-.06h-.16c.63,0,1.26,0,1.89,0h-.65c.51,0,1,0,1.53,0h.15l1.64,0h.35l1.65,0h-.25l-.47,0h.14l1,0h0l-.35,0h-1l-1.39,0h.39c-.64,0-1.43,0-1.63,0h-.44a.49.49,0,0,1,.17,0c-1,0-1.92,0-2.88,0h0l1,0h-.63l-1.92.06a2.4,2.4,0,0,0-.61,0l-.33,0h.1l-2.84.21h-.14l-.15,0-.42,0h-.2l-.11,0h.24a2.6,2.6,0,0,0-.55.07c.55,0,.55,0,1.06-.07s.4,0,.48,0l-.17,0c.41,0,.81-.06,1.21-.05h0l.94-.06Z" style="fill:#fff"/><path d="M109.39,7.45h0Z" style="fill:#fff"/><path d="M108,7.41c-1.44,0-3.21,0-3.88,0h-.53c-1.85,0-3.91.16-4.31.18h-.37l-.2,0h.13l0,0-.2,0,2.44-.13,1-.06a2.73,2.73,0,0,1,.73,0l-.22,0h-.14l-.13,0h0c1,0,1.9-.11,2.85-.08h4c-.68,0-1.36,0-2,0Z" style="fill:#fff"/><path d="M63.33,22.49h0c1.45-.91,2.5-2.37,4.16-3-.3.93-1.48.94-1.86,1.78a7.34,7.34,0,0,1-.82.65,2.91,2.91,0,0,0,.51-.22l-.15.17A44.94,44.94,0,0,0,72,17.75l-.51.17,1.3-.71c.41-.21.84-.4,1.23-.64.77-.74,1.84-.81,2.75-1.21a11.9,11.9,0,0,1-2,1.32c-.42.17-.8.41-1.21.61a8.48,8.48,0,0,1-.94.62L72.5,18l-.16.19.24,0c.3-.13.6-.29.91-.4l.6-.28.12-.05.45-.26-.41.28,0,.09a8.14,8.14,0,0,1,1.5-.61l.28-.13c.22-.14.45-.26.68-.39l-.14.19c.43-.1.8-.36,1.23-.47h0l.25-.1c.66-.3,1.21-.78,1.85-1.13h-.23a16.67,16.67,0,0,1,2.54-1.19l-.22-.08.16-.09.18-.07.46-.18s0,0,0,0l-.08,0v0c.27-.13.58-.18.85-.34h0c.85-.75,2-.7,3-1.12l-.14.19c.43,0,.46,0,1.25-.31l.06,0h0v-.08l.07-.1,0,0,.5-.18.2,0h.26l0,0h0c.64-.13,1.24-.39,1.87-.58a3.84,3.84,0,0,0-.73.15,4,4,0,0,1,.9-.27l-.23,0c.25-.07.5-.11.74-.16l.18,0h0c.11,0,.11,0,1.09-.31l0,0L93,10a2.5,2.5,0,0,0-.47.05L93,9.89l.33-.08a3.78,3.78,0,0,0-.47.06,4.52,4.52,0,0,1,.87-.2l.41-.08.26-.06a3.71,3.71,0,0,0-.48.05,1.53,1.53,0,0,1,.72-.16c.86-.11,1.69-.37,2.54-.54L96.71,9l-.15,0a4,4,0,0,0-.72.1,7,7,0,0,1,.73-.16l-.25,0c.5-.09,1-.14,1.5-.21A3.25,3.25,0,0,0,97,8.8c.71-.16,1.45-.13,2.16-.34h0l.08,0h0l.19,0,1.23-.17h-.07A7.71,7.71,0,0,0,102.07,8c-.72,0-1.42.12-2.13.18l.6-.08-.26,0,.85-.1c-.87.05-1.74.17-2.61.26l0,0,1.21-.14,2.81-.27c.71-.07,1.42-.12,2.13-.17l.15,0h0c1-.06,1.88-.1,2.87-.14-.66,0-1.18,0-2.3.07l.53,0h-.12l-.78,0,.5,0h.06l-1.76.11.25,0a4.7,4.7,0,0,0-.58,0,.53.53,0,0,0,.12,0c-1,.06-2.36.14-5.81.49-1.37.15-2.72.4-4.09.58h-.09l.48-.09-.25,0c.59-.1,1.18-.08,1.77-.18l.14,0c1.69-.27,3-.39,4-.49,3.22-.29,4.78-.33,8.93-.43-.71,0-1.92,0-4.14.06h-.64c-.53,0-1.07,0-1.61.06-.93.05-3,.2-3,.2h.07l-1.23.1h-.21c-1.46.17-2.9.49-4.37.65h-.09l.24-.09,0,0-.53.08-.13,0c-.38.06-1.87.34-2.44.47L91,9l.11,0L89,9.45h.27l-.21.11.08.08-.07,0v0l-.11,0,0,0-.06,0-.22.07.23,0-.45.15.17,0c.73-.16.73-.16,1-.24h0a12,12,0,0,1-1.15.41,17.36,17.36,0,0,0,2.81-.6,15.39,15.39,0,0,1-2.39.68l-.27.07a21.39,21.39,0,0,1-3.58,1l-1.07.29c.43,0,.85-.15,1.28-.19a5,5,0,0,1-1.14.41l-.17.06c-4.1,1.38-8.08,3.11-12.29,4.18l0-.12,0,0h0l0-.06,0,0,.15-.08.19-.12c-.23.08-.47.17-.7.27a4.91,4.91,0,0,0-.5.17l0,0,0,0,0,0,0,0-.05,0,0,0,0,0,0,0a5.75,5.75,0,0,0-1.31.54l-.64.41.21.13c.73-.22.73-.22.76-.21l0,0-.2.14c.3,0,.3,0,.92-.35l.13-.07.25-.1-.38.31c-.12.08-.26.19-.37.28l0,0c-1.55,1-3.12,1.91-4.66,2.9,0,.19,0,.19-1.41,1.48-.36.32-.55.8-.93,1.12l.4-.14ZM102.54,7.74h0l-.24,0ZM70.79,17.29v0a3.31,3.31,0,0,0-.44.16c.09-.17.09-.17.6-.43l0,.12c.39-.19.82-.31,1.2-.53.16-.09.3-.2.46-.27a1.36,1.36,0,0,1,.41-.16v0a17.66,17.66,0,0,1-2.55,1.42,2,2,0,0,1-.33.12C70.32,17.55,70.58,17.46,70.79,17.29Z" style="fill:#fff"/><path d="M195.49,56.39a3,3,0,0,1,.23.65.65.65,0,0,0,0,.13s0,0,.21.26c.05,0,.14,0,.19.11a.46.46,0,0,1,.1.14,2.58,2.58,0,0,1,.11.53s.24.43.37.46,0,0,0,0c-.12-.33-.08-.41-.07-.45h0c-.39-.6-.79-1.21-1.2-1.8Z" style="fill:#fff"/><path d="M198.65,61.18s0,0,.06,0,0,0,0-.08h.06s0,0,0,0l-.29-.63s0,0-.31-.25h0l0,0,0,.06a1.68,1.68,0,0,0,.07.24l.48.8S198.61,61.22,198.65,61.18Z" style="fill:#fff"/><path d="M95,38.9c0,.14,0,.31.07.45s.1.1.12.17a.24.24,0,0,1,0,.12.28.28,0,0,0,0,.1s.07,0,.13-.08l.21-.17a.8.8,0,0,1-.11.37c-.12.23,0,.23,0,.23s.15-.08.24-.07,0,0,0,.08.09.07.15.06l.27-.08a.57.57,0,0,0,.12-.15c.07-.11.07-.11.26-.23l.06.19c.09.18.16.15.21.1a3.4,3.4,0,0,0,.47-.74c0-.18,0-.18.09-.24s.14-.16.2-.25L95,38.57v.12C95,38.82,95,38.82,95,38.9Z" style="fill:#fff"/><path d="M204.66,72.82l0-.06.09.21S204.68,72.87,204.66,72.82Z" style="fill:#fff"/><path d="M103.73,39.05h-.24C103.58,39.1,103.66,39.16,103.73,39.05Z" style="fill:#fff"/><path d="M29.79,51.12c.23.07.26.08.65-.07.9-.34,1.68-.94,2.57-1.3,0,.27,0,.27-.34.47a2.11,2.11,0,0,1,.36.09v.26c-.79.6-1.84.82-2.48,1.66a.76.76,0,0,0,.3.48c1-.8,2.37-.55,3.31-1.39a2,2,0,0,1,0-.85L34,50.34a1.15,1.15,0,0,1-.37,0,6.93,6.93,0,0,1,1.83-3.47c0-.47.34-.87.27-1.36l.15-.12.16.09,0,.18a1.74,1.74,0,0,0,1.59-1.81c-.07,0-.07,0-3.63,1.18,2.08-1.54,2.71-2,3.32-2.14l.08.17c.82-.21,1.45-.85,2.29-1,0,1.37,1.5,1.65,1.51,1.65,1-.07,1.53-1,2.39-1.4s1.71-.37,2.53-.67l2.31-2.93-.15-.11a3.2,3.2,0,0,0-.48.26c.89-.88.89-.88,1.08-1.25l-.07-.18c-1-.22-1.63.7-2.51.85.09-.15.09-.15.17-.67.89,0,1.56-1.18,2.58-.47.73-.22.74-.3.8-.94a.58.58,0,0,1-.25-.24c.46-.82.36-1.11.36-1.11.2-.39,1.72-2.45,1.73-2.46l-.07-.23.19-.27c.24.07.24.07,3.08-2.28l-.15-.12c1.72-1,2.93-2.63,4.51-3.8-.87.07-2.1.94-3.81,2.14l-.06-.18c-.56.18-1,.55-1.61.72a6.25,6.25,0,0,0,1.12-1.19c-.15,0-.15,0-.62,0l-.05-.19c.58-.06,1.26-.52,5.75-3.51a.91.91,0,0,1,.15-.35,2.58,2.58,0,0,0-.39.14c.07,0,.07,0,3.41-2.7-.1-.08-.1-.08-.53-.12.16-.4.57-.62.73-1-2.75.86-4.9,2.8-7.4,4.13l.23-.05c-.17.23-.17.23-1.13.77l.11-.22c-4.07,1.74-6.67,5.71-10.91,7.19h0a3.5,3.5,0,0,0-.4.17l0,0a5.73,5.73,0,0,1-.44.5c-1.72,1.72-3.65,3.2-5.43,4.85l.3-.4A104,104,0,0,0,27.19,48a10.68,10.68,0,0,0,2.27,3.38C29.56,51.33,29.7,51.21,29.79,51.12Z" style="fill:#fff"/><path d="M30.25,53.1a2.38,2.38,0,0,0,.58-.37l0,0-.39-.34C30.08,53,30.1,53.13,30.25,53.1Z" style="fill:#fff"/><path d="M109.43,0A109.43,109.43,0,1,0,218.86,109.43,109.55,109.55,0,0,0,109.43,0Zm57.06,23.73h0a5.74,5.74,0,0,1-1,2.65A5.37,5.37,0,0,0,166.49,23.73Zm-57.06,188.7a102.84,102.84,0,0,1-81-39.5c-.08-1.54-1.06-2.85-1.26-4.36l.31.16c.19.66.21,1.36.44,2,1.68-3.27-3.87-7.94.37-10,.29.14.56.31.84.45l.27-.18c.18,0,.42.11.6.14a1.17,1.17,0,0,0,.37-.52c.09-.67.18-1.33.26-2,.37-3.3-1.7-6.48-.48-9.82.73-2,2.47-3.69,2.26-6.07,0-.11,0-.26,0-.37-1-.29-1.91-.59-2.83-.89.92.3,1.87.6,2.83.89a15.35,15.35,0,0,1-.19-2.15,1.74,1.74,0,0,0-.42-1.16l-4-4.43c-2.93-2.58-3.92-2.5-4.71-2.43-.66-2.16-.69-2.17-.91-2.26l-.19.1a3.73,3.73,0,0,0-1.91-2c-.59.45-.56,1.26-1,1.76-.19-.5-.46-.68-1.23-.79,0-.07-.06-.16-.08-.23-.61-2-.61-2,.14-3.5.1-.21.1-.21-.15-3.36-.07-.83-.11-1.22-.15-1.54a2.77,2.77,0,0,0-.35-1.21,17.31,17.31,0,0,0-2-3.5c-.64-.86-2-1-2.25-2.25-.25-1.52-.56-3.41-1.62-4.48.08-1.28-.73-2.38-.79-3.63l.26-.06c0-.26-.08-.4-.79-1a1.09,1.09,0,0,0-.11.43c-.66.14-.93-.43-2.18-4.72-.07.12-.07.12-.2.9a1,1,0,0,1-.42.1c-.49,1-.2,2-.43,3a.47.47,0,0,1-.06-.09c0-.86.1-1.72.17-2.58.44-.79.93-1.57.49-2.46l-.3.24a102.31,102.31,0,0,1,10.3-35.61c.57-.35,1.23-.6,1.55-1.25,1.2-2.44,1.64-3.14,1.64-3.15.66-.88,1.18-1.87,1.86-2.74a22.21,22.21,0,0,1-1.89,3.1,6,6,0,0,0,1.53-2,4.94,4.94,0,0,1,.67-1.15,6.39,6.39,0,0,1-.5,1.06c.9-.82,1.37-2,2.43-2.72,0,0,1.27-.56,1.54.16.35,0,.65-1,.65-1s.05-.33.65-1c0,0,1.4-1.49,1.74-1.36.09,0,.14,0,.33-.09A11.25,11.25,0,0,1,27.19,48,109.3,109.3,0,0,1,38.36,36.22a3.59,3.59,0,0,0-.64.4c.37-1.18.7-1.46,6.22-6.15a11.16,11.16,0,0,0,1.64-1.8A103,103,0,0,1,67.19,15.5c2.13-.66,4.13-1.67,6.23-2.41a11.13,11.13,0,0,1-1.42.74c.49.06.49.06,3.46-1-.28.22-.61.36-.89.59l.36-.1-.33.18A6.34,6.34,0,0,0,76,13l-.39.2c1.5-.07,11.69-3.17,11.78-3.2.36-.13.72-.23,1.08-.34a3.55,3.55,0,0,0-.86.05l-.27.06h-.17l-.06,0h-.16c-.61.14-1.19.34-1.81.44a9.48,9.48,0,0,0-1.16.28,7.15,7.15,0,0,0-1.66.33h-.09l0,0H82l0,0h0c-1.1.26-2.2.54-3.29.82h-.08l-.2.05.07-.09h0a19,19,0,0,1,2.91-.9h.15l.05,0h.19l.36-.1,0,0c1.35-.21,2.64-.67,4-1-.11,0-.11,0-3.23.61.85-.26,2.85-.72,3.24-.81l.34-.07h0a9.51,9.51,0,0,0,1.7-.44c.84-.13,1.83-.24,1.83-.24h0l.21,0,.2,0c1.32-.27,3.1-.52,3.12-.52l.1,0h.3l.11,0h.3c1.05-.13,2.11-.22,3.16-.35h.06l.93-.13c-.8,0-1.79.07-5,.38L93,8.09l-1.56.19c-1.71.19-3.36.72-5,1l0,0,.06,0-1.25.21-.15,0c-.23,0-.53.09-.75.14l.38,0-.62.18c-.37.08-.74.14-1.11.21l-.12,0c-.26.06-.53.1-.8.14A101.63,101.63,0,0,1,94.91,7.46c.9-.07,3.1-.23,5.47-.27h3.74l1.19,0-.48,0,.72,0h.32c-.57,0-1.76-.09-4.19-.11H99c-.59,0-1,0-1.34,0h.23c.48,0,.48,0,4.12-.06h0c-.31,0-.63,0-.94,0h.49L101,7l.82,0c.62,0,1.24,0,1.87,0h.7l-.9,0H103s-.4,0-.73-.06h.24l3.42.19c-.83-.08-1.66-.17-2.5-.23-1.09-.09-1.35-.11-1.88-.12h-.12l.24,0c1.18.06,1.26.06,3.89.31h.09l.41,0,1,.1.57,0,.37,0h.11l1.56.17h0l-.4-.06-.14,0c-2.22-.33-4.3-.58-5.92-.74q3.12-.19,6.29-.2a102.88,102.88,0,0,1,15.7,1.2c-2.92,0-5.84-.08-8.75-.11.61.05,1.23.05,1.84.1H118l1.54.12,0,0-.28,0h.31c.66.06,1.31.13,2,.18h0a25.24,25.24,0,0,1,3.35.45c-.21,0-.21,0-2.19-.14.23,0,.54.12.77.15A13.47,13.47,0,0,1,121,8.17c1.8.38,3.65.52,5.46.86-4.63-.35-9.2-1.28-13.84-1.44l.33,0-2.24-.11h.11l.65,0-.31,0c1.38.09,3.26.23,4.41.39a109.48,109.48,0,0,1,16.81,3.21A108.62,108.62,0,0,0,115.68,8c-1.34,0-2.66-.23-4-.33.83.11,1.66.2,2.49.33-.69-.09-1.83-.24-3.44-.4-.31,0-.59-.06-.83-.08h-.19a71.27,71.27,0,0,1,15,5.57c-2.19-.19-3.77-1.79-5.71-2.55l-.24-.06h0a9.36,9.36,0,0,1-2.58-.77,22.3,22.3,0,0,0,2,1c-.29-.11-.58-.23-.88-.33.89.48,1.88.71,2.79,1.13l.59.25C118.37,11,116.24,9.8,113.94,9a60.26,60.26,0,0,1,6.63,3.78c-3.67-2-7-3.73-7-3.73,4.18,2.73,8.9,4.61,12.57,8.12v0h0c-3.94-2-3.94-2-5.77-2.61.64,1.17,1.78,1.89,2.61,2.88-.73-.07-1-.76-1.47-1.14a.92.92,0,0,0,.2.82,1.33,1.33,0,0,1-.56,0c-.12.35-.13.38.4,1-.24-.11-.24-.11-1.57-1.38a2.11,2.11,0,0,0,.15.56l-.23-.19a2.69,2.69,0,0,0,.39.6l-.29-.08h0a4.76,4.76,0,0,0-.14,1.75l-.16.11c-.08.66,1,1.12.43,1.83-.63,0-1.69-1.45-1.74-1.51a1.35,1.35,0,0,0,0-.4l.3-.22c-.12-.9-1.17-1.36-2-1.73l-.12,0c1.67,2.9,1.67,2.9,3.09,5.64a2.1,2.1,0,0,0-.42-.15c-.23-.45-.26-.47-.84-.77l-.18.1c-.13.62-.67,1.12-.53,1.82.17.88,1,1.34,1.32,2.16-.36,0-.36,0-1.32-.53a1,1,0,0,0-.23.41,6.37,6.37,0,0,0-.82-1.07l-.19,0c-.08.54-.08.54.77,1.63.26,0,.48,0,.7.87-.35.27-.35.27-.5.32a6.63,6.63,0,0,1-1.16-1.06c-.82-.07-1.24-2.19-1.24-2.21,1.53-1.2-1.44-2.37-1.84-3.7l.21,0,.34.54a.78.78,0,0,0,.37.06,27.24,27.24,0,0,0,2.6,1.52c2.37-1.39-1.31-4.63-1.35-4.66-1-.62-1.25-2.2-2.78-2.06-.16-.27-.49-.42-.54-.77l.19.07.09-.18-.32-.31c0,.06-.09.16-.15.19-.24,0-.24,0-.49.19l-.48-.93a2.76,2.76,0,0,1,.4.06c.17-.2.18-.27.12-.56l0-.08-.1-.16,0,0a1.29,1.29,0,0,1-.43-.6l-.12,0v.06c0,.12,0,.27,0,.39l0,.09a1.07,1.07,0,0,1-.06.35l0,0c-.14-.45.18-1-.26-1.39,0,.42-.06,1.34-.06,1.35-.21-.29,0-.65-.18-.95a7.71,7.71,0,0,1-.24,1.52l0,.08a3.42,3.42,0,0,1,0-1c.06-.16.06-.16-.05-.6v-.06c-.33.28,0,.71-.23,1l0,0a.77.77,0,0,0-.19.55l-.31-.18,0,0-.14-.26c0,.2,0,.2,0,.63a1.89,1.89,0,0,1,0,.41l-.09-.17-.17.05,0,.19c0-.06,0-.13,0-.19-.27.25-.16.62-.27.91,0-.28.06-.57.06-.85-.14.15-.14.15-.19.53l0-.19-.18,0a3.39,3.39,0,0,0,0,.84l0,.09a1.45,1.45,0,0,1-.16-.55.91.91,0,0,0-.09.36l-.13-.15c-.2.22-.11.58-.38.78l0,.06a3.89,3.89,0,0,1-.59.9.72.72,0,0,1,.33.18l0,.18-.18.07-.13-.14-.14.16,0,.14a3.88,3.88,0,0,1-.09.58l-.07,0h0V19h-.19c-.16.33-.24.68-.39,1v0h0l.16.11-.17.09-.11-.15a1,1,0,0,0-.24.21l0,.1c-.46.59-.44,1.46-1.12,1.93l0,.14,0,.17c0,.08-.12.18-.16.26a.76.76,0,0,0-.56.47.74.74,0,0,0,.36-.06,1.36,1.36,0,0,0,0,.2,1.41,1.41,0,0,0-.6,1.17h-.07l0,0-.11.18a.73.73,0,0,1-.19.3c-.15,0-.15,0-.5.44l-.06,0,0,.11.18,0c0,.28-.25.43-.37.64l-.19,0c-.41.33-.47.95-1,1.2a.34.34,0,0,0-.13.2.51.51,0,0,1,.1.34,2.48,2.48,0,0,1,.3.25,1,1,0,0,1-.28.27c-.08-.13-.08-.13-.18-.54a1.27,1.27,0,0,0-.29.18v.17a1.09,1.09,0,0,1-.17.34l0-.29-.1-.15c-.39.23-.51.78-1,.86a2.6,2.6,0,0,0-.16.34.55.55,0,0,1-.36,0l-.1.2c.33.59.33.59.09.83-.18,0-.32-.16-.48-.22l-.2.24a.59.59,0,0,1-.19.32l-.07,0c-.22.13-.22.13-.27.51l-.34-.17-.18.11c0,.26,0,.26.18.58l-.18,0h-.09L96.8,32l-.14.16a2,2,0,0,1-.16.54l-.08.09a2.79,2.79,0,0,0-.1.39l0,.16.17.08.54-.15h.08l.12-.15.09.18.18,0a1.72,1.72,0,0,0,.27-.27l.14.14c-.06.1-.06.1-.42.45l0,.18h-.18a.55.55,0,0,0-.29-.21h-.22l0-.06a1.13,1.13,0,0,0-.48,0c-.07.25-.1.51-.18.75l.1.17.21,0-.13.12-.18,0a3.2,3.2,0,0,0-.3.45l0,.18a.61.61,0,0,1,.29.21c-.11.13-.28.2-.37.36l-.06.09c.88,0,.6-1.29,1.43-1.38H97l0,.19a3,3,0,0,0-1.14,1.33l.12.11h.1l-.13.21-.11.13c-.12.08-.12.08-.74.24a1.37,1.37,0,0,0-.15.38l.33.14.37-.15c.22.71-.76.81-.73,1.42q1.27.1,2.58.18c.18-.43.18-.43.43-.65a1.14,1.14,0,0,1,.35.13.67.67,0,0,0,.25-.22c.19-.35.08-.82.44-1.1.11.28,0,.58,0,.86l0,.1a.55.55,0,0,1,0,.31l0,.09a2,2,0,0,1,0,.42,22.23,22.23,0,0,0,2.6.27l-2.64-.12a7.25,7.25,0,0,0-.16.81l.11.07c.06.28-.08.6.16.85,0,.12-.12.24,0,.37.07,0,.09,0,.19-.22-.07.29-.07.59-.13.88s.13.25.11.4a4.26,4.26,0,0,0-.1.49.3.3,0,0,0,0,.16v.1c.14.14.24.31.37.45a3.08,3.08,0,0,1-.16.52.41.41,0,0,0-.28.13c-.12.15.19.42,0,.49s-.36.11-.42.27l-.6.16a1.4,1.4,0,0,0-.09.17l0,.14c-.07.07-.07.07-.3.08s0,.2,0,.3l0,.16s.19.19.34.2l0,.14c0,.12,0,.27.08.39v.12l0,.1,0,.14c.21.07.49.16.58-.45.13-.81.36-.83.43-.84s.08.08-.08.37v.05l.19,0a.8.8,0,0,1,.55-.06h.26l.12-.06c.12,0,.12,0,.27-.33s0-.55.17-.8.36-.22.53-.35h.17l0,0h.11c.34.09.34.09.71-.66l.16-.4a7.79,7.79,0,0,0,.17-1.06c0-.32.31-.54.39-.85v-.18c0-.52,0-.53.1-.65a1,1,0,0,0,.17-.29s0,0,0-.05-.12-.14-.12-.23.11-.22.08-.34,0-.07-.11-.1l0,0,.08,0,0-.2-.1-.06-.07-.06-.07,0a.12.12,0,0,1,0-.08l.2,0a2.39,2.39,0,0,0,.38.06,3.43,3.43,0,0,1,.48-.71.36.36,0,0,1,0,.2l.15.11a1.52,1.52,0,0,0,.42-.55l.12-.17c-.18-.18-.18-.18-.69-.17L104,37.4l-.36.08-.16-.12.15-.11h.2a1.52,1.52,0,0,0,.36-.12,1.38,1.38,0,0,0,.25.17l.07,0,.13.14c.16,0,.16,0,.49-.41l.1-.11c.11-.22.22-.42-.34-1.87h-.07l0,0-.17-.09-.18.17-.11.13a1.56,1.56,0,0,1-.22.4,1.5,1.5,0,0,1-.41.18c.79-.73.79-.73.67-1.08V34.4l-.05,0c.1-.65,0-1.29.06-1.94l.09,0,.11.1.06.07.18-.07a3,3,0,0,0,0-.73v-.1c.13-.55.13-.55.08-.82l.19,0a.94.94,0,0,0,.24-.71h.07l.19,0c.06-.15.06-.15.21-.57l0-.08.07-.11.11-.06.06-.1,0-.09.05-.06c.21-.21.47-.37.67-.6l.18,0,.07-.16.12-.15h0c.33-.35.35-.85.59-1.24v-.08l0-.1c0-1.06,0-1.06.22-1.36l0-.16L108,25.1l.13-.2v-.17l.12-.14h0a3,3,0,0,0,.3-.71,1.68,1.68,0,0,0,.32-.09h.14l0,0h.19c.19-.09.22-.09.25-.09l0,.06,0,0,.05.11,0,0,0,.1c.45.15.47,1.12.47,1.13v.14l0,.06v.08l0,.1a1.23,1.23,0,0,1-.1.42h-.05l-.19,0-.12.2a11.61,11.61,0,0,1-.85,2l0,.11c-.33.84-.37.9-.68.89a2.92,2.92,0,0,0-.34.74c-.28.09-.33.14-.42.46l0,.09c-.08.94.23,1.85.17,2.79,0,0-.6,1.47.31,2.06H108l0,.1.07.07.06.17a3.74,3.74,0,0,1,0,.58,1,1,0,0,0,.27-.19l0-.06c.11.11.11.11.19.53l.15.1c.25-.37.25-.37.51-.43l.19,0,.07,0,.13.14a3.61,3.61,0,0,0,.25-.3l.18,0h.07l0,0,.06-.08.09-.1h0l.16-.14a1.64,1.64,0,0,0,1-.47h.23l.1.09.2.07a1.25,1.25,0,0,0,.28-.37l.18-.08.16,0c-.16.29-.16.29-.1.79h.13c.3.36.79.32,1.14.56l.21.19c-.09.1-.1.1-.1.1h-.06l-.16.1h-.21l-.38-.1-.15.11-.05,0a.59.59,0,0,1-.66.31V37c0,.12,0,.29,0,.42a1.21,1.21,0,0,1-.71.06h-.07l-.05,0-.1,0a3.44,3.44,0,0,1-.49-.3c-.58.27-.58.27-.64.36h-.1l0-.07c-.21-.1-.28-.14-.47,0l0,.06a2.08,2.08,0,0,0-.57.34l0,.07-.12.08,0,.19v.42l0,.19.18.08-.14.16-.09.13a5.76,5.76,0,0,1,.37.89l.46-.13c0,.15,0,.35,0,.5a3.37,3.37,0,0,0-.08.43v.37c-.17,1-.17,1-.47,1.34l-.47-.33-.06-.13-.28-.46-.07,0,0-.1-.44-.22c-.38.38-.38.38-1,2.07l-.1.82,0,.08a5.33,5.33,0,0,0,0,1c0,.38,0,.39,0,.4v.19c-.18.78-.46,1.18-.85,1.2l-.09,0-.22.08,0,.07,0,.07c-.12.5-.19.77-.78.95l-.07,0-.36-.15,0-.19v-.12c.07-.13.15-.3.22-.42-.69-.47-.78-.53-3,1.07-.42.16-.46.15-.5.15l-.18,0-.1.09-.41.35-.43.24-.12-.1-.11,0,0-.08,0-.11v-.13l0-.07a12.22,12.22,0,0,0-.87-1.17,7.08,7.08,0,0,1-.59.5l-.09.08-.09,0-.1.1h0l-.17.23-.06.05,0,.08-.15.11-.47.11a2.39,2.39,0,0,0,0-1l-.09.06,0-.19a2.57,2.57,0,0,1-.52-.66l-.07,0,0-.1.07-.37a11.82,11.82,0,0,1,.14-1.45l.37-.23v.07h.11l.08-.21.25-.41a1.78,1.78,0,0,0,.14-.3l.47-.17c0-.15.11-.34.16-.49l-.39-.3A9.78,9.78,0,0,0,98.07,41l-.31.19-.1.14a2.93,2.93,0,0,1-.72.64,1.82,1.82,0,0,1-.39,0l-.09.06a6.38,6.38,0,0,0-.52.52l-.17.42,0,.11c0,.14-.08.32-.11.46v.22l0,.44a4.37,4.37,0,0,0-.22.95l.35.33a5.66,5.66,0,0,1-.16.82v.15a1.42,1.42,0,0,0,0,.65l0,.37-.22.29a3,3,0,0,1,0,1l-.4.23,0,.12v.22l-.09.31-.1-.06c-.16-.14-.38-.33-.55-.45s-.45,0-.58.15l-.09.11c0,.15.06.33.09.47l-.41.11,0-.1,0-.08h-.07l0-.07-.08,0-.31.06c-.6.26-.6.26-1.1,2l-.22,0h0a1.64,1.64,0,0,1,.1-.9l-.49.09c-.07.13-.16.29-.22.42l-.06.11A8.37,8.37,0,0,0,90,52.69l.1,0h.07c-.44.47-1,.77-1.43,1.27C86.23,53.61,86.23,57,84,57.12a3.49,3.49,0,0,1-.52-.81l-.51,0c0,1.83,0,1.83-.28,2.1-.93-.12-1.87-.14-2.8-.27l-.32.35.33.4-.41.34c.27.56.35.73,1.57,1.16a1.56,1.56,0,0,0,.68.69c-1.42,2.13,1.5,5-1.24,6.92-2.89,2-5.61-2.16-8.5-.24.07,3-1.88,5.29-2.45,8,.59.69.59.69-.18,2.9a20.37,20.37,0,0,1,2.47,0l.35.33c0,1.15,0,1.15.4,1.74,1.63.06,3.14-.64,4.74-.78.37-.52.73-1,3.11-2.88-1.23-3.34,3.81-3.42,4.57-6,1.07-2.36,1.07-2.36,1.52-2.37,1,.47,2.11.92,2.11.92.79-.38,1.23-1.32,2.23-1.35,1.54-1.48,1.57-1.4,3.2,2.73l.47.14c0,.16.11.37.17.53l.08.21a2.44,2.44,0,0,1,.5.69v-.06c.9,1.08,2.48,1.47,3,2.95.85.35,1.08.45,1,2.48-.06.06-.06.06-.54,1.19,0,.14,0,.33,0,.47l.47-.11a9.1,9.1,0,0,1,1.37-2l0-.5c-.73-.89-.95-1.16.09-2.12.57.3.9.89,1.42,1.25l.24-.47c-.46-1.4-2.16-1.47-2.82-2.65l.22-.44c-.65-.48-.74-.46-1.33-.29-4.44-5.26-2.18-6.58-1.32-7.07a5.47,5.47,0,0,1,.31,1.4,8.88,8.88,0,0,0,.83-.52c1.55,1.76,2.31,4.19,4.49,5.44,1.55.88.22,2.52.56,3.74.06.2.21.73,1.83,2.67.41,1,.41,1,.48,1.08l.13,0c1-.16,1-.16,3,1.17.06-.14.15-.33.22-.47a2.5,2.5,0,0,0-1.35-1.43l.17-.46-.22-.45.23-.43a1.76,1.76,0,0,1,0-1.88,2.63,2.63,0,0,1,.43.83,1.56,1.56,0,0,0,.84-.37c-.08-.12-.18-.29-.25-.41a2,2,0,0,1,3.11-.29c-.08.31-.19.72-.26,1,1.86-1.74,1.86-1.74,3.37-1.85l-.15-.46c-.42-.19-.42-.19-1.35-2-.11-.06-.11,0-.11,0,1-1.38.52-3.18,1.41-4.57l.49,0c1.44-3.31,1.44-3.31,2.43-3.56a1.89,1.89,0,0,1,.33.88c.56.35,1.24,0,1.81.37l.34-.37h.51c.1.13.25.29.35.42.19-.25.42-.6.59-.86h.48a4.41,4.41,0,0,1,3.42-1.92,6.45,6.45,0,0,1-.28,1l-.52.15a3.9,3.9,0,0,0,.42.9c0,.28,0,.29,0,.29h0c-.83,1.25-.83,1.25-1.38,1.44a3.81,3.81,0,0,0,.63,1.32c1.77-.24,6.14,4.78,5.62,5.53-1.4,2-5.29.86-5.32.84l0,0c-.84-.94-1.4-.85-1.74-.79a2.45,2.45,0,0,0-.82-.68c-4.13,1.52-4.13,1.52-4.42,2-1.38.16-1.38.16-2-.07l-.41.27.48.32c-1.12,1.25-3.14.66-4.19,2l.23.44.51,0a10.66,10.66,0,0,1,.14,1.54l-.2,0-.14.4-.16.08.1.48h.4l.43.3c.07.5.37.94.43,1.45a2.58,2.58,0,0,0,1,.06l-.38.34a2.11,2.11,0,0,0,.6.34l.45-.17c1.67,1.3,1.67,1.3,2.61.54v-.53l.41-.25a3.77,3.77,0,0,1,.9.39c.56.3.86,1,1.62,1,1.11,0,1.66-1.81,3-1.09a7.43,7.43,0,0,0,.88-.47c0,.14.1.32.15.46-1.67,3.12,1.56,8.58-3.16,10-.57-.35-1.32-.33-1.8-.85l-2.09.11a4.15,4.15,0,0,0-1,.53c-1.44,1.12-8.38-1.76-8.44-1.8-2.49-1.6-2.69-1.73-4.18-.2-.94,1,.13,3.06-1.64,3.47-.13-.1-.32-.21-.45-.31s-.27-.26-.4-.35c-1.32-1-3-1.48-4-2.89-1.29-1.81-4.51,0-5.26-2.63-.44,0-.44,0-1.3-.59l.15-.32h0c1.61-2,1.61-2,1-3.68.25-.2.58-.47.81-.69,0-.14,0-.34,0-.49l-.47.18a1.72,1.72,0,0,1-.47-.88c-1.17-.29-2.27.81-3.46.17-.49.17-.49.17-1.42-.07-2.3,1.38-5.41-1.31-7.44,1.45-1.26-.1-2.15,1.11-3.43,1,0,0-2.7-.54-3.38-1.7-1,.47-4,3.54-4.89,4.47a13.33,13.33,0,0,0-1.07,1.78,4.36,4.36,0,0,1-.35.4c-.82,1-.15,2.41-1,3.36-1.24,1.33-3.35,1.16-4.53,2.59l-6.5,9.71c1.32,1.6.6,2.23.22,2.57a6.24,6.24,0,0,1,.16,2.77c.06.16.14.31.21.47l-.21,0c-.12.37-1.34,3.34-2.1,4a24,24,0,0,1,.24,4.14c.61.25,1,.9,1.65,1,0,.54.32,1,.33,1.53l.51-.12,0,.36,2.13,4.5a1.85,1.85,0,0,1-.19,1c1,.19,1,.19,1.3.59,2.33,1.3,3.08,4.35,5.79,5.23,1.52.5,2.46-1.09,3.84-1.06s2.1,1.28,3.41,1.2c.57,0,.93-.56,1.49-.63,1.95-.25,3.62-1.73,5.72-1.34,1.94.36,2.59.48,3,2.56.38,1.76,2.47.63,3.67,1.08l.35-.37.2,0h0c.59.33,1,.92,1.69,1.11-.18,1.81.09,3.64-.25,5.45a7.84,7.84,0,0,1-1,1.81c1.41,3.56,4.77,5.9,6,9.57l1.39,5.83c-.2,2-2,3.35-2.44,5.25-.74,2.95-.74,2.95,1.85,6.81,1.08,1.6,1.92,2.86,2,3,.9,1.78.48,3.87,1.32,5.66,1.15,2.45,3.76,3.92,4.47,6.67,0,.16.07.37.1.52l-.31.39a3,3,0,0,0,.87,1.29l-.08.5c7.46-.14,7.46-.14,8.48,0l.37-.32c1,.14,11.67-6.35,10-9.9.71-1.67,2.82-1.21,3.78-2.49s-.18-2.8-.06-4.2a1.32,1.32,0,0,1-.47-1.43s5.77-3,8.69-6.39a2.8,2.8,0,0,1-.12-.5l.7-5.58c.49-1.93-2.11-3-1.35-5,0-.17,0-.4,0-.58-1.52-1-1.52-1,2.43-7.64,3.31-.74,14.16-13.12,14.33-21.5a4.9,4.9,0,0,0-.13-.55c-4.14-.61-7.64,4.23-12,1.39a7,7,0,0,0,.87-.93s-.76-1.73-5.21-4.55l-.48.19c-.64-1.13-.71-2.46-1.28-3.61h0a74.2,74.2,0,0,1-9.92-19.86c1.15.92,1.45,2.42,2.38,3.49.52-.73.54-1.66,1-2.42a10.25,10.25,0,0,1-.18,1.84c.21.2.29.2.38.19,4.26,5,6,11.67,10.95,16.21l.22.25a4.2,4.2,0,0,1,.86,1.43c.26.85,0,1.74.18,2.59s.59,1.33.8,2l.3,1.26c.47.23.47.23,2.67,0,.15-1.13,1.19-1.11,2.2-1.08.72,0,.83-.72,1.3-1s.93-.1,1.3-.45.44-.89.9-1.16c.68-.39,1.53-.36,2.17-.86,1.07-.85,1.07-.85,1.54-.86h0c.47,0,.36-.39.35-.41s.23-1.46,2.32-2.17c.82-.27.89-.3,1.2-.15a.45.45,0,0,0,.41,0c0-.55,0-.8.2-1.07h0c.33-.3.8-.4,1.12-.72a1.84,1.84,0,0,0,.33-.71c.3-1,.54-1.07,1-1,.34,0,.36,0,.44-.16.39-.63-.34-1.12-.22-1.72s.29-.55.71-.6a.47.47,0,0,0,.44-.3,20.24,20.24,0,0,0,1-2.67h0c0-.41-.83-1.39-1.54-2.14-.86-.91-2.33-.18-3.15-1.18-.28-.33-.34-.65-.53-1.68s-.29-1.09-.47-1a9.42,9.42,0,0,0-1.63,3c-.07.32-.14.37-.24.45-.59.49-1.24,0-1.85.1a12,12,0,0,0-1.31.6h0l-.52.08-.45-.33c-.35-2.78-.35-2.78-.61-3-.29.41-.29.41-.36,2A3.21,3.21,0,0,1,145,97.7c-.09-.68-3.76-4.56-3.8-4.6l.43-.21c0-.16-.08-.37-.12-.52l.5-.23c.1-.32.23-.74.34-1a4.68,4.68,0,0,1,.76.78,3.29,3.29,0,0,0,1,0c1.13,1.16,1.71,2.76,3,3.75,0-.06.13.07.18.1.55.2,2.78.86,2.88.85l.48.11c.12,0,.27.08.39.1,1.12.13,1.26-1.46,2.37-1.35.49,0,.49,0,1.33,1.72,0,.06,0,.06,4.89.67,2.28.29,4.09-1.86,6.43-1.23,2,.53,2.86,3.38,5.47,2.66-.13.91-.3,1-1.37,1.39.16,1.53,2.4,2.71,3,2.19.79-.67.46-1.74.9-2.54.81,2.23.91,4.63,1.65,6.87a48.84,48.84,0,0,0,5.64,11.32c1.16,1.74,1.37,2.06,2.13.42.07-.15.16-.37.23-.53.48-1.14,1.4-2.1,1.44-3.42.06-2.21-1.3-4.12-1.35-6.3l1-.3c.53-1.2,1-2.41,1.56-3.62l.21-.48L184,105l2.55-.77a46.52,46.52,0,0,1,2.57-5.1c-.2-.61-.2-.61.49-3.37l.27.76c.7-.49.7-.49,1.2-.59,0-.14.08-.33.12-.47l.46-.1a4,4,0,0,0-.28-1.64c4.25,4.65,4.25,4.65,4.84,6.71a37.72,37.72,0,0,0,6.65-3.08,57.32,57.32,0,0,1-6.57,3.31c.42,1.16.42,1.16.29,1.93l.53.57c1.13-.61,1.34-1.24,1-3,1.27,1.21,1.27,1.21,2.81,8h.26c.31,1.48-.37,3,0,4.42a4.54,4.54,0,0,0,.12.53c.2.51.81,1,1,1.52.67,1.72,1.05,3.52,1.65,5.26.68,2,1.71,1.65,1.83,1.6,0-.47-.17-4.61-1.45-6.66l-.15,0c-.27-.45-.27-.45-.34-.5-.41.13-.49.16-.66-.13,0-.09-.1-.21-.14-.3-.23-.56-.26-1.17-.44-1.74s-.67-.76-.79-1.27c-.46-2,.19-4-.17-6a1.1,1.1,0,0,0,.41-.25l.14,0c.1.35,0,.74.29,1,.8,0,1.29,0,1.71,1.85a2.51,2.51,0,0,0,.25-.32c0,.09,0,.09.12.81.61,0,.61,0,.77.12l.12,0c.11.54.22,2.51.22,2.52a11.52,11.52,0,0,0,.78-3,.82.82,0,0,1,.29-.66,1.48,1.48,0,0,1,.27-1c.43-.71.59-1.35.34-3,0,0-.5-3.25-1-4-1.83-2.58-1.83-2.58-1.85-2.64h0c-.77-1.85-2.56-6.18-.23-7a16.3,16.3,0,0,1,.87,1.51c.27-1-.06-2.13.45-3.11l0,0a1.21,1.21,0,0,0,0-1.25l.35.26a3.47,3.47,0,0,0-.23-.91l.23.35c1.53-1.87.55-6,.54-6.06l-.06-.21v0l-.08-.36v-.14a6.2,6.2,0,0,0-.58-1.62l-.1-.37h0l.11.15.11.22c0-.36-.14-.71-.17-1.07l0-.27c-.11-.46-.28-.9-.38-1.36l0-.13c-.09-.64-.52-1.18-.53-1.84a1.88,1.88,0,0,0-.11-.34c-.07-.14-.11-.24-.15-.31l.05.09c0-.1-.05-.17-.06-.22s-.07-.09-.08-.09h0l0,0-.24-.35-.25,0h0a5.4,5.4,0,0,1-.15-1.27,1.88,1.88,0,0,0-.05-.25h0a.38.38,0,0,0-.18-.22c-.34-.26-.47-.73-.91-.89l-.11-.15a2.31,2.31,0,0,0,.45.21v0l0,0a1.45,1.45,0,0,0-.23-.76c.13.26.26.52.38.78,0,0,0,0,.05.07l0-.19-.09-.18a2.72,2.72,0,0,0-.11-.25,1.31,1.31,0,0,0-.17-.28l0,0h0a2.85,2.85,0,0,0-.44-.41,21.75,21.75,0,0,1-1.72-2.43l-.06,0h0l-.38-.22-.28-.46-.08-.21c-.09-.21-.32-.76-.72-1.9a2.24,2.24,0,0,0-.16-.63l-.1-.18.08-.17,0,0-.1-.37a5.53,5.53,0,0,0-.53-1.11l-.4-.09a1.7,1.7,0,0,0,.15,1.23l-.13.19,0,0c-.16-.23-.41-.54-.6-.77a5,5,0,0,0-.62-.49l-.07-.06-.06-.09c-.37-.25-.54-.36-1-1.4l.09.09h.05c.12-.4.12-.4-.1-1.07l-.14-.42c-.21-.56-.28-1.16-.51-1.71-.17-.36-.2-.76-.36-1.11h0a3.79,3.79,0,0,1,.55.57c.22.45.22.45.43.82l1.26,1.92c-.08-.48-.5-2.44-.5-2.45,1.09.88,1.13.91,1.5,1.83s.48,1,.65,1.09l.07,0,.1.16.14.18a5.2,5.2,0,0,0-.21-.55h.06l0,0,.14.05.12,0,.16.16c.55.87.55.87.56,1.05a2.11,2.11,0,0,0,.37.61c.12.18.25.36.38.53a102.37,102.37,0,0,1,12.17,48.52h0a.69.69,0,0,0,0-.1l-.13.14a5.37,5.37,0,0,0-.27-1.34c-.08.24,0,.51-.13.76l0-.55a11.69,11.69,0,0,1-.34,2.78,2.94,2.94,0,0,1-.11,1.14,1.89,1.89,0,0,0,0-.42,22.71,22.71,0,0,1-1.55,5.7h0c0,.84-.06,1-.16,1.12l-.08,0c-.13,0-.18.16-.29.23a1.31,1.31,0,0,1-.08-.27h-.08a6.53,6.53,0,0,0-.38,2.13l.1,1.39c0,.29.25.52.29.81.1.8,0,1.61.12,2.41a1.46,1.46,0,0,0,.08.43c.14-.28.5-.37.59-.69a2.91,2.91,0,0,0,.06.76c.38-.25.34-.76.66-1,.11.07.14.08.16.4a.83.83,0,0,1,.18-.24l.1,0c.09.27,0,.56.05.83l0,0q-.46,2.89-1.09,5.72l0,0c-.13.14-.17,0-.23-.46s-.08-.49-.17-.5-.3.37-.46.2-.06-.11-.07-.23a3.13,3.13,0,0,0-.25.86c-.81.46-.82.46-.89.45s-.08-.13-.09-.2,0-.2-.28-.15-.13-.27-.23-.38h0c-.11.12-.13.29-.24.4s-.26,0-.36.1a1.26,1.26,0,0,0-.14.4c-.1.48-.3.84-.47.85a4.75,4.75,0,0,0-.05.5,2.51,2.51,0,0,1,.7-.33,1.76,1.76,0,0,0-.15.62l1.15,0a.6.6,0,0,1,.11-.37c.07-.09.16.08.23,0s.08-.19.18-.25.15,0,.26.18.24.19.56-.28c0,.22,0,.23.06.24s.1-.18.2-.23.1.1.17.05.07-.05.19-.23l.11-.17A103.17,103.17,0,0,1,109.43,212.43ZM129.66,19.12l.29-.05c-.92-1.23-4.07-3.25-7.37-5.16a22.31,22.31,0,0,0,3,1.31l.16-.24c2.13.17,3.43,2,5.32,2.68l-.21.19c-1.4-.77-2.71-1.71-4.14-2.45l-.17.25c.39.55,5,4.73,5.09,4.77l-.29.13h-.1c-.37,0-.37,0-1.12-.47l.14-.08a5,5,0,0,0,.56.3C130.91,19.48,129.67,19.12,129.66,19.12ZM111.4,7.65h-.09c.61.07,1,.13,1.52.2l-.29,0a46.35,46.35,0,0,1,4.65.93c-1.66-.34-3.9-.8-5.61-1.06l.18,0Zm-.21,0-.33,0h0Z" style="fill:#fff"/></g></g></svg>