<svg width="354" height="354" viewBox="0 0 354 354" fill="none" xmlns="http://www.w3.org/2000/svg">
<g clip-path="url(#clip0)">
<circle cx="177" cy="177" r="177" fill="white"/>
<path d="M170.59 221.35C193.156 221.35 211.45 203.056 211.45 180.49C211.45 157.924 193.156 139.63 170.59 139.63C148.024 139.63 129.73 157.924 129.73 180.49C129.73 203.056 148.024 221.35 170.59 221.35Z" fill="#FFD142" stroke="black" stroke-miterlimit="10"/>
<path d="M170.1 131.36C160.287 131.36 150.694 134.27 142.535 139.721C134.375 145.173 128.015 152.921 124.259 161.987C120.503 171.052 119.519 181.028 121.432 190.653C123.345 200.278 128.069 209.119 135.006 216.06C141.944 223 150.783 227.727 160.407 229.644C170.031 231.561 180.008 230.581 189.075 226.829C198.142 223.076 205.893 216.719 211.348 208.562C216.803 200.405 219.716 190.813 219.72 181C219.721 174.482 218.439 168.029 215.946 162.007C213.453 155.985 209.798 150.513 205.191 145.903C200.583 141.294 195.113 137.637 189.092 135.142C183.071 132.646 176.618 131.361 170.1 131.36V131.36ZM170.59 215.52C163.668 215.52 156.901 213.467 151.145 209.621C145.389 205.776 140.903 200.309 138.254 193.914C135.605 187.519 134.912 180.481 136.263 173.692C137.613 166.902 140.946 160.666 145.841 155.771C150.736 150.876 156.972 147.543 163.762 146.193C170.551 144.842 177.588 145.535 183.984 148.184C190.379 150.833 195.846 155.319 199.691 161.075C203.537 166.831 205.59 173.598 205.59 180.52V180.52C205.59 189.803 201.902 198.705 195.339 205.269C188.775 211.833 179.873 215.52 170.59 215.52V215.52Z" fill="black" stroke="black" stroke-miterlimit="10"/>
<path d="M170.59 95.85C153.656 95.85 137.102 100.872 123.022 110.28C108.942 119.688 97.9678 133.06 91.4874 148.705C85.0071 164.35 83.3115 181.565 86.6152 198.174C89.9188 214.782 98.0733 230.038 110.048 242.012C122.022 253.987 137.278 262.141 153.886 265.445C170.495 268.748 187.71 267.053 203.355 260.573C219 254.092 232.372 243.118 241.78 229.038C251.188 214.958 256.21 198.404 256.21 181.47C256.21 170.226 253.995 159.093 249.693 148.705C245.39 138.317 239.083 128.878 231.132 120.928C223.182 112.977 213.743 106.67 203.355 102.367C192.967 98.0646 181.834 95.85 170.59 95.85V95.85ZM171.59 251.52C153.012 251.52 135.194 244.14 122.057 231.003C108.92 217.866 101.54 200.048 101.54 181.47C101.54 162.892 108.92 145.074 122.057 131.937C135.194 118.8 153.012 111.42 171.59 111.42C212.87 111.42 241.59 145.42 241.59 181.47C241.597 190.667 239.791 199.775 236.276 208.273C232.761 216.772 227.606 224.494 221.105 231C214.604 237.505 206.885 242.666 198.389 246.187C189.893 249.708 180.787 251.52 171.59 251.52V251.52Z" fill="black" stroke="black" stroke-miterlimit="10"/>
<path d="M257.18 66.54L233.71 95.54C261.6 113.83 279.79 141.39 278.58 177.54C276.65 235.54 232.86 276.77 173.51 278.72C148.42 279.695 123.852 271.381 104.51 255.37L83.42 281.54C106.83 304.54 139.95 318.65 180.8 318.65C217.047 318.653 251.811 304.258 277.447 278.632C303.082 253.006 317.489 218.247 317.5 182C317.5 129.94 293.57 89.52 257.18 66.54Z" fill="black" stroke="black" stroke-miterlimit="10"/>
<path d="M238.52 11.57C220.89 5.22 211.72 28.5 230.76 34.14H230.68C266.358 47.2566 295.83 73.2596 313.288 107.026C330.747 140.792 334.927 179.872 325.004 216.566C315.081 253.261 291.776 284.909 259.679 305.274C227.582 325.639 189.022 333.245 151.596 326.593C114.17 319.942 80.5919 299.514 57.4785 269.336C34.365 239.158 23.3919 201.417 26.7212 163.551C30.0505 125.685 47.4408 90.438 75.4656 64.7561C103.49 39.0741 140.117 24.8192 178.13 24.8C180.93 24.8 183.7 24.8767 186.44 25.03H186.31L187.13 25.16C188.13 25.22 189.19 25.28 190.22 25.36C206.85 25.25 210.15 4.21 192.74 1.25C187.58 0.75 182.387 0.5 177.16 0.5C133.058 0.459047 90.5393 16.9299 57.974 46.6696C25.4087 76.4094 5.15688 117.263 1.20584 161.187C-2.7452 205.112 9.89083 248.924 36.6261 283.998C63.3613 319.072 102.259 342.866 145.66 350.696C189.06 358.526 233.82 349.824 271.127 326.304C308.433 302.784 335.582 266.15 347.229 223.614C358.877 181.078 354.178 135.723 334.058 96.4782C313.938 57.2335 279.856 26.9428 238.52 11.57V11.57Z" fill="black" stroke="black" stroke-miterlimit="10"/>
</g>
<defs>
<clipPath id="clip0">
<rect width="354" height="354" fill="white"/>
</clipPath>
</defs>
</svg>
