<svg xmlns="http://www.w3.org/2000/svg" viewBox="0 0 353.69 353.69"><defs><style>.cls-1{fill:#fda430;}.cls-1,.cls-2,.cls-3{stroke:#000;stroke-miterlimit:10;}.cls-2{fill:#ffd142;}.cls-3{fill:#fff;}</style></defs><g id="Livello_2" data-name="Livello 2"><g id="Livello_2-2" data-name="Livello 2"><circle class="cls-1" cx="176.98" cy="176.69" r="176"/><circle class="cls-2" cx="170.28" cy="180.49" r="40.86"/><path class="cls-3" d="M169.79,131.36A49.62,49.62,0,1,0,219.41,181,49.63,49.63,0,0,0,169.79,131.36Zm.49,84.16a35,35,0,1,1,35-35A35,35,0,0,1,170.28,215.52Z"/><path class="cls-3" d="M170.28,95.85a85.62,85.62,0,1,0,85.62,85.62A85.62,85.62,0,0,0,170.28,95.85Zm1,155.67a70.05,70.05,0,0,1,0-140.1c41.28,0,70.05,34,70.05,70.05A70,70,0,0,1,171.25,251.52Z"/><path class="cls-3" d="M256.87,66.54l-23.47,29c27.89,18.29,46.08,45.85,44.87,82-1.93,58-45.72,99.23-105.07,101.18a102,102,0,0,1-69-23.35L83.11,281.54c23.41,23,56.53,37.11,97.38,37.11A136.7,136.7,0,0,0,317.19,182C317.19,129.94,293.26,89.52,256.87,66.54Z"/><path class="cls-3" d="M238.21,11.57h0c-17.63-6.35-26.8,16.93-7.76,22.57l-.08,0a152.09,152.09,0,1,1-52.55-9.34q4.19,0,8.31.23L186,25l.82.13c1,.06,2.06.12,3.09.2,16.63-.11,19.93-21.15,2.52-24.11C187.3.74,182.1.5,176.85.5a176.5,176.5,0,1,0,61.36,11.07Z"/></g></g></svg>