<svg xmlns="http://www.w3.org/2000/svg" viewBox="0 0 166.25 134"><g id="Livello_2" data-name="Livello 2"><g id="Livello_1-2" data-name="Livello 1"><path d="M8.91,17.31A8.41,8.41,0,1,1,8.91.5H157.34a8.41,8.41,0,1,1,0,16.81Z"/><path d="M157.34,1a7.91,7.91,0,1,1,0,15.81H8.91A7.91,7.91,0,1,1,8.91,1H157.34m0-1H8.91A8.91,8.91,0,0,0,0,8.91H0a8.9,8.9,0,0,0,8.91,8.9H157.34a8.9,8.9,0,0,0,8.91-8.9h0A8.91,8.91,0,0,0,157.34,0Z"/><path d="M8.91,73.25a8.41,8.41,0,1,1,0-16.81H157.34a8.41,8.41,0,1,1,0,16.81Z"/><path d="M157.34,56.94a7.91,7.91,0,1,1,0,15.81H8.91a7.91,7.91,0,1,1,0-15.81H157.34m0-1H8.91a8.91,8.91,0,1,0,0,17.81H157.34a8.91,8.91,0,1,0,0-17.81Z"/><path d="M8.91,133.5a8.41,8.41,0,1,1,0-16.81H157.34a8.41,8.41,0,1,1,0,16.81Z"/><path d="M157.34,117.19a7.91,7.91,0,1,1,0,15.81H8.91a7.91,7.91,0,1,1,0-15.81H157.34m0-1H8.91a8.91,8.91,0,1,0,0,17.81H157.34a8.91,8.91,0,1,0,0-17.81Z"/></g></g></svg>