<svg xmlns="http://www.w3.org/2000/svg" viewBox="0 0 321.43 383.16"><g id="Livello_2" data-name="Livello 2"><g id="Livello_2-2" data-name="Livello 2"><path d="M151.87,133.54l-.34-.17m-32.17-15.74-.16-.08" style="fill:none;stroke:#1d1d1b;stroke-miterlimit:10;stroke-width:3px"/><path d="M193.73,47.14l-42.2,86.23-32.17-15.74,42.2-86.23c3-6.1,9.69-8.94,15-6.35l13,6.37C194.84,34,196.71,41,193.73,47.14Z" style="fill:#fff;stroke:#1d1d1b;stroke-miterlimit:10;stroke-width:3px"/><path d="M151.53,133.37l-115.47,236c-5,10.25-16.29,15-25.17,10.7s-12-16.19-7-26.44l115.47-236Z" style="fill:#f8ae54;stroke:#1d1d1b;stroke-miterlimit:10;stroke-width:3px"/><line x1="134.81" y1="140.44" x2="43.23" y2="327.6" style="fill:none;stroke:#1d1d1b;stroke-linecap:round;stroke-linejoin:round;stroke-width:2px"/><line x1="38.62" y1="337.03" x2="30.47" y2="353.67" style="fill:none;stroke:#1d1d1b;stroke-linecap:round;stroke-linejoin:round;stroke-width:2px"/><path d="M69.5,1.5,47.79,45.87S188.42,97.68,319.93,211C319.93,211,290.25,122.52,69.5,1.5Z" style="fill:#afafaf;stroke:#1d1d1b;stroke-linecap:round;stroke-linejoin:round;stroke-width:3px"/><path d="M72.84,16.13S154.67,60.7,200.11,97.29" style="fill:#afafaf;stroke:#1d1d1b;stroke-linecap:round;stroke-linejoin:round;stroke-width:2px"/><line x1="205.21" y1="101.3" x2="215.31" y2="109.34" style="fill:#afafaf;stroke:#1d1d1b;stroke-linecap:round;stroke-linejoin:round;stroke-width:2px"/></g></g></svg>